<svg width="825" height="365" viewBox="0 0 825 365" fill="none" xmlns="http://www.w3.org/2000/svg">
<rect width="825" height="364.371" fill="#F7F7F7"/>
<path d="M54.746 109.208C42.7582 109.208 34.1956 103.192 32.2635 94.7174C32.1317 93.9709 32 93.3561 32 92.7414C32 91.5558 32.6148 90.8532 33.6247 90.8532C34.5468 90.8532 35.1177 91.3362 35.3372 92.3901C36.4789 100.645 44.4269 106.003 54.8777 106.003C65.6359 106.003 73.1447 100.25 73.1447 91.8192C73.1447 84.9691 68.578 81.1927 57.5563 78.602L50.8379 77.0212C38.4549 74.123 33.4491 69.205 33.4491 60.818C33.4491 50.894 42.6704 44 54.1751 44C64.5821 44 73.0569 49.3572 75.0329 57.4368C75.1646 57.9637 75.2086 58.6224 75.2086 59.1933C75.2086 60.2471 74.5938 60.9058 73.5838 60.9058C72.6617 60.9058 72.1348 60.3789 71.9152 59.3689C70.6857 52.1236 63.4843 47.2055 54.1312 47.2055C44.6464 47.2055 36.962 52.5188 36.962 60.7301C36.962 67.4925 41.5726 71.3566 51.9357 73.8157L58.6541 75.3525C71.4761 78.3824 76.7015 82.9053 76.7015 91.4679C76.7015 102.051 67.8315 109.208 54.746 109.208Z" fill="#0B80FF"/>
<path d="M86.5815 108.945C85.5277 108.945 84.869 108.242 84.869 107.1V46.7664C84.869 45.6247 85.5277 44.9221 86.5815 44.9221H120.086C121.14 44.9221 121.798 45.5808 121.798 46.5029C121.798 47.469 121.14 48.1276 120.086 48.1276H88.338V74.6061H117.451C118.505 74.6061 119.164 75.2647 119.164 76.1869C119.164 77.109 118.505 77.7677 117.451 77.7677H88.338V107.1C88.338 108.242 87.6354 108.945 86.5815 108.945Z" fill="#0B80FF"/>
<path d="M150.341 108.988C149.331 108.988 148.628 108.286 148.628 107.144V46.7664C148.628 45.6686 149.287 44.9221 150.341 44.9221H169.178C181.737 44.9221 189.509 51.8601 189.509 63.0135C189.509 72.147 184.064 78.7337 174.843 80.578L189.861 106.09C190.168 106.529 190.3 106.925 190.3 107.364C190.3 108.286 189.597 108.988 188.587 108.988C187.797 108.988 187.314 108.681 186.875 107.891L171.242 81.1049C170.627 81.1927 169.661 81.2366 169.003 81.2366H152.097V107.144C152.097 108.286 151.394 108.988 150.341 108.988ZM152.097 78.075H169.003C179.585 78.075 185.952 72.4105 185.952 63.1013C185.952 53.6604 179.497 48.0837 168.871 48.0837H152.097V78.075Z" fill="#0B80FF"/>
<path d="M214.582 108.988C202.331 108.988 194.252 99.7671 194.252 85.4521C194.252 71.1371 202.331 61.9157 214.582 61.9157C226.878 61.9157 234.957 71.1371 234.957 85.4521C234.957 99.7232 226.878 108.988 214.582 108.988ZM214.582 105.915C224.858 105.915 231.532 97.9668 231.532 85.4521C231.532 72.9374 224.858 64.9895 214.582 64.9895C204.351 64.9895 197.677 72.8935 197.677 85.4521C197.677 98.0107 204.351 105.915 214.582 105.915Z" fill="#0B80FF"/>
<path d="M259.021 108.988C249.184 108.988 242.554 102.577 242.554 92.3462V63.76C242.554 62.6622 243.256 61.9157 244.223 61.9157C245.232 61.9157 245.935 62.6622 245.935 63.76V91.8192C245.935 100.733 251.424 105.915 259.723 105.915C268.374 105.915 274.916 99.6793 274.916 90.0189V63.76C274.916 62.6622 275.619 61.9157 276.629 61.9157C277.639 61.9157 278.341 62.6622 278.341 63.76V107.232C278.341 108.242 277.771 108.988 276.761 108.988C275.751 108.988 275.136 108.242 275.136 107.232V98.362H275.004C272.984 104.51 266.573 108.988 259.021 108.988Z" fill="#0B80FF"/>
<path d="M290.197 108.988C289.187 108.988 288.485 108.242 288.485 107.144V63.6722C288.485 62.6183 289.144 61.9157 290.066 61.9157C291.032 61.9157 291.69 62.6183 291.69 63.6722V72.5422H291.778C293.93 66.1312 299.858 61.9157 307.718 61.9157C317.554 61.9157 324.272 68.4146 324.272 78.6898V107.144C324.272 108.242 323.57 108.988 322.56 108.988C321.55 108.988 320.847 108.242 320.847 107.144V79.1289C320.847 70.3028 315.227 64.9895 306.928 64.9895C297.882 64.9895 291.91 71.5323 291.91 81.0171V107.144C291.91 108.242 291.207 108.988 290.197 108.988Z" fill="#0B80FF"/>
<path d="M351.322 108.988C339.905 108.988 331.869 99.5037 331.869 85.4521C331.869 71.4005 339.861 61.9157 351.278 61.9157C359.753 61.9157 366.339 67.4925 368.359 74.6061H368.447V46.0638C368.447 44.966 369.15 44.2196 370.116 44.2196C371.126 44.2196 371.872 44.966 371.872 46.0638V107.232C371.872 108.286 371.17 108.988 370.204 108.988C369.238 108.988 368.447 108.33 368.447 107.232V96.1225H368.359C366.383 103.412 359.841 108.988 351.322 108.988ZM351.761 105.915C361.553 105.915 368.491 97.5716 368.491 85.4521C368.491 73.3326 361.553 64.9895 351.761 64.9895C342.057 64.9895 335.294 73.2009 335.294 85.4082C335.294 97.6594 342.057 105.915 351.761 105.915Z" fill="#0B80FF"/>
<path d="M400.766 108.988C388.075 108.988 380.171 100.338 380.171 85.6717C380.171 71.181 388.119 61.9157 400.195 61.9157C411.831 61.9157 419.779 70.7419 419.779 83.6517C419.779 85.1447 418.901 86.0229 417.364 86.0229H383.64C383.64 98.6254 390.271 105.959 400.634 105.959C408.187 105.959 413.763 102.27 415.959 95.859C416.222 95.2443 416.618 94.8491 417.364 94.8491C418.242 94.8491 418.901 95.4638 418.901 96.386C418.901 96.6934 418.769 97.2203 418.638 97.6155C416.442 104.597 409.592 108.988 400.766 108.988ZM383.684 83.1687H416.266C416.222 72.3227 409.767 64.9456 400.195 64.9456C390.71 64.9456 384.167 72.1909 383.684 83.1687Z" fill="#0B80FF"/>
<path d="M444.765 108.988C433.348 108.988 425.312 99.5037 425.312 85.4521C425.312 71.4005 433.304 61.9157 444.721 61.9157C453.196 61.9157 459.782 67.4925 461.802 74.6061H461.89V46.0638C461.89 44.966 462.593 44.2196 463.559 44.2196C464.569 44.2196 465.315 44.966 465.315 46.0638V107.232C465.315 108.286 464.612 108.988 463.646 108.988C462.68 108.988 461.89 108.33 461.89 107.232V96.1225H461.802C459.826 103.412 453.283 108.988 444.765 108.988ZM445.204 105.915C454.996 105.915 461.934 97.5716 461.934 85.4521C461.934 73.3326 454.996 64.9895 445.204 64.9895C435.499 64.9895 428.737 73.2009 428.737 85.4082C428.737 97.6594 435.499 105.915 445.204 105.915Z" fill="#0B80FF"/>
<path d="M55.712 214.68C43.4169 214.68 34.986 209.366 32.5269 201.989C32.2196 201.023 32 199.969 32 198.915C32 196.061 33.7564 194.217 36.435 194.217C38.6745 194.217 40.1236 195.227 41.0896 197.598C43.0656 203.526 48.818 206.292 56.1511 206.292C64.1869 206.292 69.9392 202.165 69.9392 196.5C69.9392 191.582 66.602 188.508 58.1271 186.664L51.1892 185.215C38.5428 182.537 32.7904 176.652 32.7904 167.519C32.7904 156.673 42.3191 149.208 55.7998 149.208C66.7337 149.208 75.3403 154.346 77.7993 162.82C78.0189 163.435 78.1506 164.182 78.1506 165.104C78.1506 167.651 76.3502 169.319 73.8034 169.319C71.4322 169.319 69.9831 168.222 68.9732 165.938C66.8215 160.098 61.9913 157.595 55.6681 157.595C48.2471 157.595 42.7582 161.196 42.7582 166.992C42.7582 171.603 46.0516 174.676 54.2629 176.433L61.157 177.882C74.4621 180.692 79.907 186.006 79.907 195.227C79.907 207.171 70.5101 214.68 55.712 214.68Z" fill="#4F46E5"/>
<path d="M93.6512 214.328C90.5775 214.328 88.7332 212.396 88.7332 209.235V155.356C88.7332 152.194 90.5775 150.262 93.6512 150.262H124.389C127.155 150.262 129 151.93 129 154.521C129 157.112 127.112 158.781 124.389 158.781H98.5693V178.804H122.062C124.696 178.804 126.497 180.429 126.497 182.932C126.497 185.479 124.696 187.103 122.062 187.103H98.5693V209.235C98.5693 212.396 96.6811 214.328 93.6512 214.328Z" fill="#4F46E5"/>
<path d="M160.045 214.46C157.015 214.46 155.127 212.528 155.127 209.366V155.356C155.127 152.194 156.971 150.262 160.045 150.262H179.673C192.715 150.262 200.838 157.815 200.838 169.627C200.838 178.102 196.359 184.952 188.763 187.63L199.477 206.556C200.267 207.917 200.531 208.839 200.531 209.937C200.531 212.528 198.379 214.46 195.525 214.46C193.242 214.46 192.056 213.626 190.607 211.035L178.707 189.255H164.963V209.366C164.963 212.528 163.031 214.46 160.045 214.46ZM164.963 181.307H178.751C186.348 181.307 190.695 177.135 190.695 169.89C190.695 162.82 186.084 158.517 178.488 158.517H164.963V181.307Z" fill="#4F46E5"/>
<path d="M228.898 214.504C215.68 214.504 206.986 205.414 206.986 190.528C206.986 175.686 215.724 166.597 228.898 166.597C242.071 166.597 250.809 175.686 250.809 190.528C250.809 205.414 242.115 214.504 228.898 214.504ZM228.898 206.688C236.362 206.688 241.149 200.804 241.149 190.528C241.149 180.297 236.319 174.413 228.898 174.413C221.477 174.413 216.646 180.297 216.646 190.528C216.646 200.804 221.477 206.688 228.898 206.688Z" fill="#4F46E5"/>
<path d="M274.126 214.46C264.07 214.46 257.923 207.917 257.923 197.335V171.647C257.923 168.485 259.855 166.597 262.665 166.597C265.432 166.597 267.408 168.485 267.408 171.647V195.49C267.408 202.516 270.745 206.292 277.288 206.292C284.138 206.292 288.265 201.55 288.265 194.349V171.647C288.265 168.485 290.241 166.597 293.008 166.597C295.818 166.597 297.75 168.485 297.75 171.647V209.63C297.75 212.572 295.95 214.46 293.227 214.46C290.505 214.46 288.661 212.572 288.661 209.674V205.809H288.441C285.894 211.342 281.196 214.46 274.126 214.46Z" fill="#4F46E5"/>
<path d="M311.89 214.46C309.079 214.46 307.147 212.572 307.147 209.454V171.383C307.147 168.485 308.904 166.597 311.67 166.597C314.393 166.597 316.281 168.485 316.281 171.427V175.072H316.5C319.003 169.802 323.833 166.641 330.947 166.641C341.134 166.641 346.975 173.14 346.975 183.722V209.454C346.975 212.572 344.999 214.46 342.188 214.46C339.422 214.46 337.446 212.572 337.446 209.454V185.566C337.446 178.628 334.196 174.808 327.61 174.808C320.935 174.808 316.632 179.551 316.632 186.708V209.454C316.632 212.572 314.656 214.46 311.89 214.46Z" fill="#4F46E5"/>
<path d="M373.497 214.416C361.817 214.416 354.088 205.107 354.088 190.528C354.088 175.95 361.817 166.685 373.409 166.685C380.04 166.685 385.309 170.022 387.9 175.116H388.075V154.433C388.075 151.316 390.051 149.428 392.862 149.428C395.628 149.428 397.604 151.316 397.604 154.433V209.718C397.604 212.704 395.672 214.46 392.906 214.46C390.227 214.46 388.075 212.704 388.075 209.718V205.414H387.944C385.572 210.815 380.698 214.416 373.497 214.416ZM376 206.38C383.289 206.38 388.163 200.189 388.163 190.528C388.163 180.956 383.289 174.676 376 174.676C368.491 174.676 363.793 180.824 363.793 190.528C363.793 200.277 368.491 206.38 376 206.38Z" fill="#4F46E5"/>
<path d="M427.376 214.504C413.456 214.504 405.289 205.678 405.289 190.748C405.289 176.082 413.632 166.597 426.717 166.597C439.012 166.597 447.487 175.467 447.487 188.069C447.487 191.143 445.731 192.9 442.789 192.9H414.861V193.119C414.861 201.55 419.604 206.819 427.156 206.819C432.338 206.819 435.587 205.019 439.1 200.233C440.11 199.047 441.076 198.564 442.437 198.564C444.721 198.564 446.389 200.057 446.389 202.428C446.389 203.175 446.126 204.053 445.731 204.975C442.701 211.035 435.982 214.504 427.376 214.504ZM414.905 186.269H438.002C437.783 179.024 433.26 174.237 426.673 174.237C420.13 174.237 415.388 179.068 414.905 186.269Z" fill="#4F46E5"/>
<path d="M472.209 214.416C460.529 214.416 452.8 205.107 452.8 190.528C452.8 175.95 460.529 166.685 472.121 166.685C478.752 166.685 484.021 170.022 486.612 175.116H486.788V154.433C486.788 151.316 488.764 149.428 491.574 149.428C494.34 149.428 496.316 151.316 496.316 154.433V209.718C496.316 212.704 494.384 214.46 491.618 214.46C488.939 214.46 486.788 212.704 486.788 209.718V205.414H486.656C484.285 210.815 479.411 214.416 472.209 214.416ZM474.712 206.38C482.001 206.38 486.875 200.189 486.875 190.528C486.875 180.956 482.001 174.676 474.712 174.676C467.203 174.676 462.505 180.824 462.505 190.528C462.505 200.277 467.203 206.38 474.712 206.38Z" fill="#4F46E5"/>
<path d="M58.2149 320.239C43.9438 320.239 35.6885 315.101 32.966 308.91C32.3074 307.461 32 305.968 32 304.519C32 300.04 35.3812 296.966 39.9918 296.966C43.5047 296.966 45.8759 298.064 48.3789 301.577C50.5744 304.694 54.2629 305.968 58.4345 305.968C64.0112 305.968 67.4363 303.685 67.4363 300.567C67.4363 297.581 64.9773 296.307 57.8637 295.034L51.4965 293.892C38.894 291.653 32 285.286 32 275.45C32 262.715 42.9778 254.68 58.0393 254.68C70.5979 254.68 79.5997 259.115 82.893 267.019C83.4199 268.292 83.6834 269.478 83.6834 270.927C83.6834 275.142 80.6096 277.997 75.955 278.04C72.003 278.04 69.5001 276.679 67.2606 273.298C65.1968 270.136 62.2548 268.951 58.2589 268.951C53.0773 268.951 50.4427 271.234 50.4427 274.088C50.4427 276.943 53.1652 278.304 59.4884 279.446L65.8555 280.587C79.4679 283.046 85.879 288.623 85.879 298.898C85.879 311.94 75.6916 320.239 58.2149 320.239Z" fill="#F944A5"/>
<path d="M102.126 320.239C96.1981 320.239 92.8169 316.726 92.8169 310.491V265.526C92.8169 259.29 96.1981 255.777 102.126 255.777H130.01C135.016 255.777 138.221 258.456 138.221 263.198C138.221 267.941 134.928 270.619 130.01 270.619H111.435V282.739H128.121C132.776 282.739 135.762 285.286 135.762 289.721C135.762 294.156 132.864 296.703 128.121 296.703H111.435V310.491C111.435 316.726 108.054 320.239 102.126 320.239Z" fill="#F944A5"/>
<path d="M170.364 320.239C164.436 320.239 161.055 316.726 161.055 310.491V265.526C161.055 259.29 164.436 255.777 170.364 255.777H189.202C206.108 255.777 214.802 263.725 214.802 277.294C214.802 284.32 211.816 290.95 205.8 294.463L212.431 305.353C214.056 308.076 214.407 309.525 214.407 311.72C214.407 316.682 210.543 320.239 205.142 320.239C200.575 320.239 198.731 318.614 195.437 312.774L187.094 297.888H179.673V310.491C179.673 316.726 176.292 320.239 170.364 320.239ZM179.673 285.593H187.358C192.583 285.593 195.789 282.388 195.789 277.601C195.789 272.903 192.407 269.522 187.401 269.522H179.673V285.593Z" fill="#F944A5"/>
<path d="M244.706 320.371C228.898 320.371 219.237 311.237 219.237 294.858C219.237 278.919 229.161 269.434 244.706 269.434C260.338 269.434 270.218 278.831 270.218 294.858C270.218 311.281 260.557 320.371 244.706 320.371ZM244.706 307.505C249.184 307.505 251.951 303.026 251.951 294.902C251.951 286.998 249.141 282.3 244.706 282.3C240.314 282.3 237.504 286.998 237.504 294.902C237.504 303.026 240.183 307.505 244.706 307.505Z" fill="#F944A5"/>
<path d="M293.623 320.107C283.216 320.107 275.575 313.301 275.575 301.752V278.875C275.575 272.508 279.308 269.566 284.577 269.566C289.846 269.566 293.579 272.508 293.579 278.919V297.713C293.579 302.85 296.345 305.573 300.56 305.573C304.6 305.573 307.235 302.455 307.235 297.757V278.875C307.235 272.508 310.967 269.566 316.237 269.566C321.506 269.566 325.239 272.508 325.239 278.919V311.062C325.239 317.385 321.638 320.239 316.456 320.239C311.275 320.239 307.674 317.385 307.674 311.105V309.613H307.323C305.391 316.199 300.868 320.107 293.623 320.107Z" fill="#F944A5"/>
<path d="M341.003 320.239C335.733 320.239 332.001 317.297 332.001 310.93V278.611C332.001 272.859 335.119 269.566 340.739 269.566C346.36 269.566 350.004 272.859 350.004 278.655V279.753H350.356C352.815 272.947 357.425 269.697 364.802 269.697C375.692 269.697 381.664 276.46 381.664 288.096V310.93C381.664 317.297 377.932 320.239 372.663 320.239C367.393 320.239 363.661 317.297 363.661 310.93V292.092C363.661 287.218 361.377 284.232 356.855 284.232C352.595 284.232 350.004 287.525 350.004 292.048V310.93C350.004 317.297 346.272 320.239 341.003 320.239Z" fill="#F944A5"/>
<path d="M405.859 319.844C393.916 319.844 386.978 310.579 386.978 294.771C386.978 279.182 394.091 269.961 406.167 269.961C413.236 269.961 418.506 273.957 420.394 279.402H420.745V263.989C420.745 257.622 424.478 254.68 429.747 254.68C435.016 254.68 438.749 257.622 438.749 264.033V310.93C438.749 317.297 435.016 320.239 429.747 320.239C424.478 320.239 420.745 317.297 420.745 310.93V310.754H420.394C418.769 315.848 413.149 319.844 405.859 319.844ZM413.105 305.968C417.979 305.968 420.833 301.928 420.833 294.946C420.833 288.008 417.935 283.837 413.105 283.837C408.275 283.837 405.42 288.052 405.42 294.902C405.42 301.84 408.231 305.968 413.105 305.968Z" fill="#F944A5"/>
<path d="M469.662 320.371C453.766 320.371 444.326 310.93 444.326 295.166C444.326 279.314 453.854 269.434 469.091 269.434C484.109 269.434 493.813 279.006 493.813 292.048C493.813 296.351 491.354 298.723 486.875 298.723H461.67V299.864C461.67 304.607 465.095 308.032 469.926 308.032C473.834 308.032 476.644 306.846 480.069 303.816C481.957 302.148 483.363 301.577 485.558 301.577C489.027 301.577 492.145 303.816 492.145 307.68C492.145 309.042 491.75 310.359 490.959 311.632C487.71 317.033 479.542 320.371 469.662 320.371ZM461.934 288.974H477.039C476.732 284.627 473.702 281.817 469.487 281.817C465.403 281.817 462.285 284.803 461.934 288.974Z" fill="#F944A5"/>
<path d="M516.955 319.844C505.011 319.844 498.073 310.579 498.073 294.771C498.073 279.182 505.186 269.961 517.262 269.961C524.332 269.961 529.601 273.957 531.489 279.402H531.84V263.989C531.84 257.622 535.573 254.68 540.842 254.68C546.112 254.68 549.844 257.622 549.844 264.033V310.93C549.844 317.297 546.112 320.239 540.842 320.239C535.573 320.239 531.84 317.297 531.84 310.93V310.754H531.489C529.864 315.848 524.244 319.844 516.955 319.844ZM524.2 305.968C529.074 305.968 531.928 301.928 531.928 294.946C531.928 288.008 529.03 283.837 524.2 283.837C519.37 283.837 516.515 288.052 516.515 294.902C516.515 301.84 519.326 305.968 524.2 305.968Z" fill="#F944A5"/>
</svg>
