<svg width="11" height="6" viewBox="0 0 11 6" fill="none" xmlns="http://www.w3.org/2000/svg">
<path fill-rule="evenodd" clip-rule="evenodd" d="M0.21934 0.238708C0.359965 0.0982579 0.550589 0.0193681 0.74934 0.0193681C0.948091 0.0193681 1.13871 0.0982579 1.27934 0.238708L4.99934 3.95871L8.71934 0.238708C8.788 0.165022 8.8708 0.105919 8.9628 0.064927C9.0548 0.023935 9.15412 0.00189351 9.25482 0.000116722C9.35552 -0.00166006 9.45555 0.0168643 9.54894 0.0545854C9.64233 0.0923064 9.72716 0.148451 9.79838 0.21967C9.8696 0.290889 9.92574 0.375722 9.96346 0.46911C10.0012 0.562499 10.0197 0.662527 10.0179 0.76323C10.0162 0.863933 9.99411 0.963247 9.95312 1.05525C9.91213 1.14725 9.85303 1.23005 9.77934 1.29871L5.52934 5.54871C5.38871 5.68916 5.19809 5.76805 4.99934 5.76805C4.80059 5.76805 4.60997 5.68916 4.46934 5.54871L0.21934 1.29871C0.0788894 1.15808 0 0.967459 0 0.768708C0 0.569957 0.0788894 0.379334 0.21934 0.238708Z" fill="black"/>
</svg>
