<svg xmlns="http://www.w3.org/2000/svg" width="32" height="32" fill="none"><g clip-path="url(#a)"><g filter="url(#b)"><path fill="url(#c)" fill-opacity=".97" d="M16.387 28.02c-.965.357-1.908.473-2.829.347a4.59 4.59 0 0 1-2.387-1.097c-.665-.586-1.147-1.393-1.446-2.42l-1.173-3.986c-.176-.585-.506-.98-.989-1.188-.483-.207-1.01-.204-1.582.008l-3.35 1.242-1.391-3.752 3.35-1.242c.572-.212.973-.554 1.205-1.026.225-.49.217-1.005-.024-1.546L4.003 9.413c-.418-.963-.563-1.874-.435-2.735a4.279 4.279 0 0 1 1.09-2.324c.604-.671 1.398-1.189 2.38-1.553l2.278-.845 1.36 3.67a.087.087 0 0 1-.05.113l-1.393.516c-.5.185-.856.46-1.067.822-.21.363-.192.823.055 1.382l1.768 3.947c.436.956.382 1.88-.16 2.773-.533.868-1.46 1.546-2.782 2.037l-.07-.188c1.323-.49 2.475-.561 3.457-.214.994.322 1.64.997 1.94 2.024l1.222 4.12c.16.489.45.829.866 1.02.41.173.855.17 1.338-.009l1.229-.455a.261.261 0 0 1 .335.154l1.3 3.507-2.277.845Z" shape-rendering="crispEdges"/></g><g clip-path="url(#d)" filter="url(#e)"><path fill="url(#f)" fill-opacity=".97" d="M16.822 4.609c.981-.345 1.936-.446 2.864-.304.91.15 1.709.531 2.395 1.146.661.604 1.134 1.426 1.419 2.468l1.114 4.043c.168.593.495.998.98 1.215.484.217 1.017.224 1.599.02l3.408-1.199 1.34 3.81-3.408 1.199c-.582.204-.994.543-1.236 1.015-.236.491-.237 1.011-.003 1.561l1.718 4.014c.405.98.536 1.902.39 2.768a4.323 4.323 0 0 1-1.141 2.329c-.623.667-1.434 1.177-2.434 1.528l-2.318.815-1.34-3.81 1.5-.528c.51-.179.873-.45 1.093-.812.22-.363.21-.828-.031-1.396l-1.718-4.014c-.423-.973-.353-1.905.212-2.797.553-.867 1.502-1.537 2.846-2.01l.067.19c-1.345.474-2.51.527-3.497.16-.998-.342-1.64-1.034-1.925-2.076l-1.162-4.179c-.154-.496-.44-.844-.858-1.044-.41-.182-.862-.186-1.352-.014l-1.24.436a.275.275 0 0 1-.351-.168l-1.249-3.551 2.318-.815Z" shape-rendering="crispEdges"/></g><g filter="url(#g)"><path fill="url(#h)" fill-opacity=".97" d="M16.822 4.609c.981-.345 1.936-.446 2.864-.304.91.15 1.709.531 2.395 1.146.661.604 1.134 1.426 1.419 2.468l1.115 4.043c.168.593.494.998.979 1.215.484.217 1.017.224 1.599.02l3.278-1.153a.137.137 0 0 1 .175.084l1.25 3.551a.137.137 0 0 1-.085.175l-3.278 1.153c-.582.204-.994.543-1.236 1.015-.236.491-.237 1.011-.003 1.561l1.718 4.014c.405.98.536 1.902.391 2.768a4.323 4.323 0 0 1-1.142 2.329c-.623.667-1.434 1.177-2.434 1.528l-2.317.815-1.34-3.81 1.5-.528c.508-.179.873-.45 1.092-.812.22-.363.21-.828-.031-1.396l-1.718-4.014c-.423-.973-.353-1.905.212-2.797.553-.867 1.502-1.537 2.847-2.01l.067.19c-1.345.474-2.511.527-3.498.16-.998-.342-1.64-1.034-1.924-2.076l-1.163-4.179c-.154-.496-.44-.844-.858-1.044-.41-.182-.862-.186-1.352-.014l-1.111.39a.412.412 0 0 1-.526-.251l-1.203-3.422 2.318-.815Z" shape-rendering="crispEdges"/></g></g><defs><linearGradient id="c" x1="6.976" x2="-.402" y1="9.232" y2="11.984" gradientUnits="userSpaceOnUse"><stop stop-color="#54A6FF"/><stop offset="1" stop-color="#0B80FF"/></linearGradient><linearGradient id="f" x1="26.003" x2="33.509" y1="23.73" y2="21.074" gradientUnits="userSpaceOnUse"><stop stop-color="#54A6FF"/><stop offset="1" stop-color="#0B80FF"/></linearGradient><linearGradient id="h" x1="26.003" x2="33.509" y1="23.73" y2="21.074" gradientUnits="userSpaceOnUse"><stop stop-color="#54A6FF"/><stop offset="1" stop-color="#0B80FF"/></linearGradient><filter id="b" width="18.121" height="27.157" x=".892" y="1.956" color-interpolation-filters="sRGB" filterUnits="userSpaceOnUse"><feFlood flood-opacity="0" result="BackgroundImageFix"/><feColorMatrix in="SourceAlpha" result="hardAlpha" values="0 0 0 0 0 0 0 0 0 0 0 0 0 0 0 0 0 0 127 0"/><feOffset dy=".348"/><feGaussianBlur stdDeviation=".174"/><feComposite in2="hardAlpha" operator="out"/><feColorMatrix values="0 0 0 0 0 0 0 0 0 0.478431 0 0 0 0 1 0 0 0 1 0"/><feBlend in2="BackgroundImageFix" result="effect1_dropShadow_130_384"/><feBlend in="SourceGraphic" in2="effect1_dropShadow_130_384" result="shape"/></filter><filter id="e" width="18.81" height="28.58" x="13.68" y="3.281" color-interpolation-filters="sRGB" filterUnits="userSpaceOnUse"><feFlood flood-opacity="0" result="BackgroundImageFix"/><feColorMatrix in="SourceAlpha" result="hardAlpha" values="0 0 0 0 0 0 0 0 0 0 0 0 0 0 0 0 0 0 127 0"/><feOffset dy="-.412"/><feGaussianBlur stdDeviation=".275"/><feComposite in2="hardAlpha" operator="out"/><feColorMatrix values="0 0 0 0 0 0 0 0 0 0.478431 0 0 0 0 1 0 0 0 1 0"/><feBlend in2="BackgroundImageFix" result="effect1_dropShadow_130_384"/><feColorMatrix in="SourceAlpha" result="hardAlpha" values="0 0 0 0 0 0 0 0 0 0 0 0 0 0 0 0 0 0 127 0"/><feOffset dx="-.275" dy=".275"/><feGaussianBlur stdDeviation=".275"/><feComposite in2="hardAlpha" operator="out"/><feColorMatrix values="0 0 0 0 1 0 0 0 0 1 0 0 0 0 1 0 0 0 0.95 0"/><feBlend in2="effect1_dropShadow_130_384" result="effect2_dropShadow_130_384"/><feBlend in="SourceGraphic" in2="effect2_dropShadow_130_384" result="shape"/></filter><filter id="g" width="18.498" height="27.893" x="13.955" y="3.281" color-interpolation-filters="sRGB" filterUnits="userSpaceOnUse"><feFlood flood-opacity="0" result="BackgroundImageFix"/><feColorMatrix in="SourceAlpha" result="hardAlpha" values="0 0 0 0 0 0 0 0 0 0 0 0 0 0 0 0 0 0 127 0"/><feOffset dy="-.412"/><feGaussianBlur stdDeviation=".275"/><feComposite in2="hardAlpha" operator="out"/><feColorMatrix values="0 0 0 0 0 0 0 0 0 0.478431 0 0 0 0 1 0 0 0 1 0"/><feBlend in2="BackgroundImageFix" result="effect1_dropShadow_130_384"/><feBlend in="SourceGraphic" in2="effect1_dropShadow_130_384" result="shape"/></filter><clipPath id="a"><path fill="#fff" d="M0 0h32v32H0z"/></clipPath><clipPath id="d"><path fill="#fff" d="m11.78 6.01 12.078-.513.828 19.49-12.08.513z"/></clipPath></defs></svg>