<svg width="825" height="367" viewBox="0 0 825 367" fill="none" xmlns="http://www.w3.org/2000/svg">
<rect width="825" height="366.961" fill="#F7F7F7"/>
<path d="M48.5106 45.5808L84.7373 97.6594L83.859 56.9538C83.7273 49.445 82.9369 47.7764 77.0967 47.0738V45.5808H93.6951V47.0738C87.9867 47.8642 87.1963 49.5767 87.1085 56.9538L86.7133 108.988H80.8292L41.0896 51.904L41.8361 97.6155C41.9239 105.124 42.8021 106.793 48.5984 107.495V108.988H32V107.495C37.7084 106.705 38.5428 104.993 38.5867 97.6155L39.0258 54.1874C39.0258 49.445 37.7524 48.0837 33.0978 47.0738V45.5808H48.5106Z" fill="#636363"/>
<path d="M97.6471 87.7355C97.6471 75.0452 105.376 65.736 117.583 65.736C128.561 65.736 134.972 72.9374 134.972 83.2126C134.972 84.047 134.884 84.9691 134.796 85.5399H106.429C106.737 97.3959 113.28 105.695 123.072 105.695C128.034 105.695 131.766 103.895 134.181 101.348V102.841C131.459 106.925 125.75 109.779 118.549 109.779C106.473 109.779 97.6471 100.953 97.6471 87.7355ZM117.539 67.8437C110.777 67.8437 106.649 73.5961 106.429 83.7835L126.585 83.6078C126.628 83.037 126.672 82.3783 126.672 81.6758C126.672 73.7717 123.686 67.8437 117.539 67.8437Z" fill="#636363"/>
<path d="M144.5 74.9134C142.7 69.688 141.207 68.7659 137.475 68.0194V66.4825H157.322V68.0194C152.492 68.722 151.921 69.9515 153.722 75.7478L161.187 99.328L169.134 75.7478C171.067 69.9954 170.364 68.6781 165.797 68.0194V66.4825H184.416V68.0194C179.849 68.6781 179.146 69.9954 181.034 75.7478L188.807 99.328L196.491 76.0551C198.467 69.9954 197.633 68.722 192.89 68.0194V66.4825H206.503V68.0194C202.858 68.6781 201.585 69.7758 199.126 76.4503L187.27 108.988H183.976L172.12 75.1769L159.65 108.988H156.356L144.5 74.9134Z" fill="#636363"/>
<path d="M236.011 56.1634C231.532 48.8302 229.995 47.6885 225.999 47.0738V45.5808H248.877V47.0738C243.432 47.8642 242.51 49.7963 246.286 56.1634L258.713 77.1968L269.603 57.832C274.038 49.8841 273.687 47.9081 267.451 47.0738V45.5808H283.786V47.0738C279.571 47.8203 277.815 49.445 272.457 58.1833L259.635 78.9533V101.304C259.635 105.563 260.47 106.749 266.398 107.495V108.988H243.432V107.495C249.316 106.749 250.15 105.563 250.15 101.304V79.5241L236.011 56.1634Z" fill="#636363"/>
<path d="M295.423 109.779C283.391 109.779 273.819 101.128 273.819 87.8233C273.819 74.7817 283.479 65.736 295.73 65.736C307.762 65.736 317.335 74.3865 317.335 87.6477C317.335 100.689 307.63 109.779 295.423 109.779ZM295.73 107.671C303.283 107.671 307.806 99.9428 307.806 88.1307C307.806 76.0112 302.8 67.8437 295.423 67.8437C287.826 67.8437 283.303 75.5721 283.303 87.3403C283.303 99.4598 288.309 107.671 295.73 107.671Z" fill="#636363"/>
<path d="M337.138 66.0434V75.3965C342.188 69.0733 345.745 65.9117 349.346 65.9117C352.42 65.9117 353.737 67.8877 353.737 70.2149C353.737 71.4445 353.298 72.674 352.859 73.2448C352.024 73.0253 350.312 72.8057 348.555 72.8057C344.164 72.8057 339.466 74.2987 337.226 76.626V102.665C337.226 106.046 337.841 106.793 343.023 107.495V108.988H323.263V107.495C327.961 106.837 328.576 106.09 328.576 103.192V73.3326C328.576 71.0053 328.268 70.5223 325.853 69.7319L323.263 68.9415V67.6242L337.138 66.0434Z" fill="#636363"/>
<path d="M389.041 108.988L375.605 86.7694L370.335 86.6816V103.28C370.335 106.134 370.862 106.837 375.341 107.495V108.988H356.372V107.495C360.938 106.793 361.685 106.046 361.685 103.017V51.2892C361.685 48.962 361.377 48.4789 358.962 47.6885L356.372 46.8981V45.5808L370.335 44V84.8374L375.561 84.6617L384.958 74.123C388.427 70.2589 388.031 68.8537 383.113 68.0194V66.4825H399.053V68.0194C394.574 68.9854 392.598 70.1271 386.495 75.7917L381.313 80.6658L392.949 99.855C396.287 105.344 398.307 107.012 401.117 107.583V108.988H389.041Z" fill="#636363"/>
<path d="M50.9696 151.623L85.0007 202.736L84.1225 163.128C83.9908 155.751 83.2004 154.082 77.4919 153.336V151.623H94.1343V153.336C88.6454 154.17 87.855 155.839 87.7232 163.128L87.2402 215.031H78.7654L41.2213 158.693L42.0117 203.526C42.0996 210.903 42.9778 212.572 48.6423 213.318V215.031H32V213.318C37.4889 212.484 38.3232 210.815 38.411 203.526L38.894 160.449C38.894 155.795 37.6206 154.346 33.01 153.336V151.623H50.9696Z" fill="#7C7C7C"/>
<path d="M97.8228 193.602C97.8228 180.692 105.99 171.339 118.724 171.339C130.141 171.339 136.86 178.628 136.86 189.167C136.86 190.089 136.728 191.099 136.64 191.714H108.625C109.24 203.482 115.782 211.079 125.267 211.079C130.01 211.079 133.698 209.322 136.025 206.907L136.069 208.62C133.171 212.967 127.112 215.865 119.559 215.865C107.132 215.865 97.8228 207.083 97.8228 193.602ZM118.681 173.71C112.357 173.71 108.581 179.551 108.581 189.694L126.936 189.518C126.98 188.86 127.024 188.113 127.024 187.191C127.024 179.331 124.301 173.71 118.681 173.71Z" fill="#7C7C7C"/>
<path d="M145.993 180.912C144.149 175.642 142.7 174.633 139.099 173.886V172.13H160.967V173.886C156.269 174.545 155.785 175.906 157.542 181.922L164.436 204.404L171.769 181.878C173.657 175.906 173.043 174.545 168.608 173.886V172.13H189.158V173.886C184.679 174.501 184.064 175.906 185.909 181.922L193.066 204.404L200.18 182.141C202.112 175.906 201.365 174.589 196.755 173.886V172.13H210.543V173.886C206.986 174.545 205.669 175.686 203.21 182.493L191.529 215.031H186.523L174.887 181.966L162.899 215.031H157.893L145.993 180.912Z" fill="#7C7C7C"/>
<path d="M239.919 162.337C235.704 155.268 234.167 154.038 230.171 153.336V151.623H255.069V153.336C249.711 154.126 248.833 156.014 252.522 162.469L264.422 183.151L274.872 163.918C279.088 156.102 278.649 154.17 272.633 153.336V151.623H289.144V153.336C284.928 154.126 283.216 155.707 278.166 164.138L265.475 185.259V206.995C265.475 211.254 266.354 212.528 272.106 213.318V215.031H247.252V213.318C252.961 212.528 253.883 211.254 253.883 206.995V185.962L239.919 162.337Z" fill="#7C7C7C"/>
<path d="M301.79 215.865C289.056 215.865 279.176 207.171 279.176 193.69C279.176 180.473 289.144 171.339 302.053 171.339C314.744 171.339 324.668 180.034 324.668 193.47C324.668 206.644 314.656 215.865 301.79 215.865ZM302.053 213.45C309.079 213.45 313.119 205.853 313.119 193.953C313.119 181.658 308.596 173.71 301.746 173.71C294.72 173.71 290.68 181.307 290.68 193.207C290.68 205.502 295.203 213.45 302.053 213.45Z" fill="#7C7C7C"/>
<path d="M346.184 171.647V182.053C350.927 174.896 354.527 171.515 358.435 171.515C361.817 171.515 363.309 173.93 363.309 176.784C363.309 178.277 362.87 179.726 362.387 180.473C361.421 180.165 359.401 179.858 357.381 179.858C352.99 179.858 348.424 181.219 346.272 183.371V208.356C346.272 211.737 346.931 212.572 352.024 213.318V215.031H330.376V213.318C334.943 212.616 335.602 211.825 335.602 208.839V179.682C335.602 177.179 335.25 176.609 332.835 175.818L330.376 175.072V173.491L346.184 171.647Z" fill="#7C7C7C"/>
<path d="M399.317 215.031L386.538 193.251L381.84 193.163V208.971C381.84 211.913 382.411 212.616 386.626 213.318V215.031H365.944V213.318C370.423 212.572 371.17 211.781 371.17 208.708V157.815C371.17 155.312 370.862 154.785 368.403 153.95L365.944 153.204V151.623L381.84 149.779V191.055L386.495 190.924L396.155 180.341C399.756 176.477 399.404 174.764 394.399 173.886V172.13H411.173V173.886C406.562 174.896 404.279 176.213 398.131 181.746L393.916 185.654L405.069 204.712C408.714 211.079 410.69 212.747 413.412 213.406V215.031H399.317Z" fill="#7C7C7C"/>
<path d="M59.0932 258.632L85.9229 306.363L85.0446 270.619C84.9129 263.681 84.0347 262.013 78.8532 261.135V258.632H95.6272V261.135C90.797 261.969 89.9627 263.638 89.831 270.488L89.0406 322.039H72.003L41.7483 268.292L42.5826 310.052C42.6704 316.99 43.5925 318.658 48.7741 319.536V322.039H32V319.536C36.8302 318.702 37.7084 317.033 37.7963 310.183L38.411 268.248C38.4549 263.857 37.2254 262.013 32.6587 261.135V258.632H59.0932Z" fill="#9A9A9A"/>
<path d="M98.5693 300.084C98.5693 286.427 108.318 276.943 122.72 276.943C135.455 276.943 143.227 284.583 143.227 295.824C143.227 297.098 143.095 298.371 142.963 299.206H116.134C117.671 310.227 124.126 315.936 132.644 315.936C136.64 315.936 140.241 314.399 142.393 312.291L142.437 314.794C139.011 319.975 131.81 322.961 123.16 322.961C109.591 322.961 98.5693 314.443 98.5693 300.084ZM115.782 293.98C115.782 294.77 115.826 295.517 115.87 296.307L128.297 296.132C128.341 295.21 128.385 294.112 128.385 292.575C128.385 284.803 126.628 280.236 122.72 280.236C118.285 280.236 115.782 285.198 115.782 293.98Z" fill="#9A9A9A"/>
<path d="M151.219 287.745C149.331 282.388 148.013 281.114 144.764 280.368V277.821H173.262V280.368C169.003 280.851 168.739 282.563 170.408 289.326L175.458 308.119L180.771 289.194C182.527 282.519 182.044 280.938 178.092 280.368V277.821H205.01V280.368C200.838 280.851 200.487 282.563 202.2 289.326L207.337 308.076L212.65 289.282C214.451 282.519 213.968 280.982 209.796 280.368V277.821H224.111V280.368C220.774 281.07 219.325 282.3 216.866 289.589L205.8 322.039H195.218L184.416 291.521L173.921 322.039H163.338L151.219 287.745Z" fill="#9A9A9A"/>
<path d="M253.18 269.785C249.711 263.506 248.218 262.013 244.223 261.135V258.632H275.795V261.135C270.701 261.837 269.998 263.594 273.423 270.312L283.479 289.809L292.569 271.015C296.038 263.681 295.335 261.925 290.022 261.135V258.632H307.147V261.135C302.888 262.013 301.351 263.506 297.267 270.883L285.06 293.146V312.774C285.06 317.165 286.114 318.702 291.295 319.536V322.039H260.25V319.536C265.388 318.702 266.485 317.165 266.485 312.774V294.244L253.18 269.785Z" fill="#9A9A9A"/>
<path d="M322.867 322.961C307.894 322.961 296.96 314.135 296.96 300.128C296.96 286.427 307.981 276.943 322.999 276.943C338.017 276.943 348.951 285.725 348.951 299.732C348.951 313.433 337.929 322.961 322.867 322.961ZM323.131 319.668C328.312 319.668 330.771 312.467 330.771 300.215C330.771 287.437 327.829 280.236 322.736 280.236C317.554 280.236 315.095 287.393 315.095 299.645C315.095 312.467 318.037 319.668 323.131 319.668Z" fill="#9A9A9A"/>
<path d="M375.868 277.162L375.78 291.082C379.601 281.158 383.377 277.118 388.207 277.118C392.598 277.118 394.75 280.895 394.75 285.593C394.75 287.876 394.267 290.028 393.696 291.258C392.203 290.687 389.261 290.204 386.363 290.204C382.016 290.204 377.756 291.17 375.956 292.707L376 314.179C376 317.692 376.834 318.702 381.489 319.536V322.039H353.737V319.536C357.865 318.79 358.655 317.78 358.655 314.574V287.657C358.655 284.539 358.216 283.793 355.801 282.958L353.737 282.3V279.929L375.868 277.162Z" fill="#9A9A9A"/>
<path d="M432.909 322.039L422.282 301.621L419.472 301.577V314.838C419.472 317.999 420.043 318.834 423.512 319.536V322.039H397.209V319.536C401.337 318.746 402.127 317.78 402.127 314.531V266.36C402.127 263.242 401.776 262.584 399.273 261.705L397.209 261.003V258.632L419.472 255.865V298.635L422.194 298.547L432.645 287.964C436.773 283.968 436.597 281.378 431.196 280.368V277.821H450.737V280.368C445.731 281.509 442.35 283.354 436.114 288.447L435.06 289.369L444.633 307.812C449.244 317.033 451.088 318.702 453.503 319.624V322.039H432.909Z" fill="#9A9A9A"/>
</svg>
