<svg width="127" height="12" viewBox="0 0 127 12" fill="none" xmlns="http://www.w3.org/2000/svg">
<path d="M126 3.97C126.2 3.96 126.335 4.005 126.405 4.105C126.475 4.205 126.495 4.33 126.465 4.48C126.445 4.62 126.385 4.755 126.285 4.885C126.235 4.955 126.12 5.1 125.94 5.32C125.77 5.54 125.555 5.795 125.295 6.085C125.045 6.375 124.775 6.67 124.485 6.97C124.345 7.12 124.205 7.265 124.065 7.405C123.925 7.545 123.785 7.685 123.645 7.825C123.515 7.965 123.375 8.11 123.225 8.26C123.085 8.4 122.935 8.545 122.775 8.695C122.615 8.845 122.445 9 122.265 9.16C122.315 9.14 122.385 9.12 122.475 9.1C122.565 9.08 122.66 9.065 122.76 9.055C123 9.045 123.275 9.04 123.585 9.04C123.905 9.03 124.225 9.025 124.545 9.025C124.865 9.025 125.15 9.03 125.4 9.04C125.65 9.04 125.83 9.045 125.94 9.055C126.09 9.065 126.22 9.09 126.33 9.13C126.44 9.17 126.52 9.225 126.57 9.295C126.63 9.365 126.66 9.46 126.66 9.58C126.66 9.66 126.64 9.735 126.6 9.805C126.57 9.865 126.515 9.915 126.435 9.955C126.355 9.985 126.245 9.995 126.105 9.985C125.845 9.965 125.59 9.96 125.34 9.97C125.09 9.97 124.885 9.965 124.725 9.955C124.485 9.945 124.31 9.94 124.2 9.94C124.09 9.94 123.985 9.945 123.885 9.955C123.795 9.965 123.66 9.975 123.48 9.985C123.31 9.985 123.05 9.99 122.7 10C122.34 10.01 122.055 10.015 121.845 10.015C121.645 10.025 121.485 10.03 121.365 10.03C121.235 10.03 121.135 9.995 121.065 9.925C120.995 9.855 120.965 9.755 120.975 9.625C120.975 9.565 120.98 9.51 120.99 9.46C121 9.41 121.02 9.36 121.05 9.31C121.08 9.26 121.13 9.195 121.2 9.115C121.27 9.025 121.365 8.915 121.485 8.785C121.805 8.435 122.095 8.125 122.355 7.855C122.615 7.585 122.86 7.335 123.09 7.105C123.32 6.875 123.54 6.65 123.75 6.43C123.97 6.21 124.2 5.975 124.44 5.725C124.68 5.465 124.945 5.17 125.235 4.84C125.105 4.88 125.005 4.91 124.935 4.93C124.875 4.94 124.815 4.945 124.755 4.945C124.695 4.945 124.605 4.95 124.485 4.96C124.165 4.96 123.87 4.96 123.6 4.96C123.34 4.95 123.055 4.94 122.745 4.93C122.445 4.92 122.07 4.92 121.62 4.93C121.4 4.93 121.245 4.88 121.155 4.78C121.075 4.68 121.03 4.565 121.02 4.435C121.02 4.335 121.07 4.24 121.17 4.15C121.27 4.05 121.42 4 121.62 4C121.98 4 122.33 4.005 122.67 4.015C123.02 4.015 123.375 4.015 123.735 4.015C124.095 4.015 124.465 4.01 124.845 4C125.025 3.99 125.185 3.985 125.325 3.985C125.465 3.985 125.59 3.985 125.7 3.985C125.82 3.975 125.92 3.97 126 3.97Z" fill="black"/>
<path d="M113.325 10.24C113.415 10.14 113.505 10.08 113.595 10.06C113.695 10.05 113.795 10.065 113.895 10.105C114.005 10.155 114.115 10.23 114.225 10.33C114.395 10.48 114.575 10.58 114.765 10.63C114.965 10.69 115.245 10.73 115.605 10.75C115.815 10.75 115.985 10.69 116.115 10.57C116.245 10.46 116.36 10.285 116.46 10.045C116.57 9.805 116.68 9.5 116.79 9.13C116.86 8.91 116.93 8.7 117 8.5C117.07 8.29 117.145 8.065 117.225 7.825C117.315 7.575 117.405 7.3 117.495 7C117.645 6.59 117.76 6.24 117.84 5.95C117.93 5.66 118.005 5.41 118.065 5.2C118.125 4.99 118.185 4.795 118.245 4.615C118.275 4.495 118.31 4.385 118.35 4.285C118.4 4.185 118.455 4.1 118.515 4.03C118.575 3.95 118.645 3.895 118.725 3.865C118.815 3.825 118.91 3.815 119.01 3.835C119.15 3.865 119.23 3.95 119.25 4.09C119.28 4.22 119.27 4.38 119.22 4.57C119.18 4.76 119.125 4.965 119.055 5.185C118.985 5.435 118.905 5.7 118.815 5.98C118.735 6.25 118.66 6.5 118.59 6.73C118.52 6.96 118.46 7.145 118.41 7.285C118.35 7.455 118.285 7.655 118.215 7.885C118.145 8.115 118.075 8.345 118.005 8.575C117.945 8.805 117.885 9.015 117.825 9.205C117.775 9.395 117.735 9.53 117.705 9.61C117.615 9.87 117.525 10.12 117.435 10.36C117.355 10.61 117.25 10.83 117.12 11.02C116.99 11.22 116.815 11.38 116.595 11.5C116.375 11.62 116.08 11.685 115.71 11.695C115.21 11.695 114.795 11.63 114.465 11.5C114.145 11.38 113.855 11.235 113.595 11.065C113.495 10.985 113.41 10.895 113.34 10.795C113.28 10.695 113.245 10.595 113.235 10.495C113.235 10.395 113.265 10.31 113.325 10.24ZM113.73 3.85C113.85 3.82 113.95 3.82 114.03 3.85C114.12 3.88 114.195 3.935 114.255 4.015C114.325 4.095 114.375 4.205 114.405 4.345C114.535 4.855 114.665 5.29 114.795 5.65C114.925 6.01 115.06 6.32 115.2 6.58C115.35 6.83 115.515 7.05 115.695 7.24C115.875 7.42 116.075 7.59 116.295 7.75C116.425 7.84 116.55 7.905 116.67 7.945C116.8 7.975 116.935 7.995 117.075 8.005C117.225 8.005 117.395 8.015 117.585 8.035L117.345 8.965C117.175 8.955 117 8.945 116.82 8.935C116.65 8.915 116.48 8.88 116.31 8.83C116.14 8.78 115.985 8.705 115.845 8.605C115.505 8.355 115.185 8.065 114.885 7.735C114.595 7.405 114.335 6.99 114.105 6.49C113.875 5.98 113.68 5.35 113.52 4.6C113.47 4.36 113.47 4.18 113.52 4.06C113.58 3.93 113.65 3.86 113.73 3.85Z" fill="black"/>
<path d="M106.065 4.015C106.085 3.995 106.135 3.97 106.215 3.94C106.295 3.9 106.39 3.885 106.5 3.895C106.61 3.895 106.72 3.955 106.83 4.075C107.03 4.275 107.275 4.54 107.565 4.87C107.855 5.2 108.17 5.56 108.51 5.95C108.85 6.34 109.18 6.73 109.5 7.12C109.83 7.5 110.125 7.845 110.385 8.155C110.655 8.465 110.865 8.7 111.015 8.86C111.185 9.02 111.315 9.17 111.405 9.31C111.495 9.44 111.545 9.56 111.555 9.67C111.565 9.78 111.52 9.89 111.42 10C111.35 10.08 111.255 10.11 111.135 10.09C111.025 10.07 110.895 10.01 110.745 9.91C110.605 9.8 110.46 9.67 110.31 9.52C110.02 9.22 109.7 8.865 109.35 8.455C109.01 8.035 108.66 7.605 108.3 7.165C107.94 6.715 107.585 6.29 107.235 5.89C106.895 5.48 106.58 5.14 106.29 4.87C106.22 4.8 106.15 4.715 106.08 4.615C106.01 4.505 105.965 4.4 105.945 4.3C105.935 4.19 105.975 4.095 106.065 4.015ZM111.435 4.015C111.525 4.095 111.56 4.19 111.54 4.3C111.53 4.4 111.49 4.5 111.42 4.6C111.35 4.7 111.28 4.79 111.21 4.87C110.99 5.11 110.745 5.385 110.475 5.695C110.215 6.005 109.94 6.335 109.65 6.685C109.37 7.025 109.085 7.37 108.795 7.72C108.515 8.06 108.24 8.385 107.97 8.695C107.7 9.005 107.45 9.28 107.22 9.52C107.07 9.67 106.92 9.8 106.77 9.91C106.62 10.01 106.485 10.07 106.365 10.09C106.245 10.11 106.15 10.08 106.08 10C105.99 9.89 105.945 9.78 105.945 9.67C105.955 9.56 106.005 9.44 106.095 9.31C106.195 9.17 106.325 9.02 106.485 8.86C106.615 8.73 106.78 8.55 106.98 8.32C107.19 8.09 107.42 7.825 107.67 7.525C107.92 7.225 108.18 6.915 108.45 6.595C108.73 6.265 109.005 5.945 109.275 5.635C109.545 5.315 109.8 5.02 110.04 4.75C110.28 4.48 110.49 4.255 110.67 4.075C110.79 3.955 110.9 3.895 111 3.895C111.11 3.885 111.205 3.9 111.285 3.94C111.365 3.97 111.415 3.995 111.435 4.015Z" fill="black"/>
<path d="M102.15 9.325C102.15 9.575 102.115 9.765 102.045 9.895C101.985 10.025 101.885 10.11 101.745 10.15C101.615 10.2 101.45 10.225 101.25 10.225C101.05 10.225 100.88 10.2 100.74 10.15C100.61 10.1 100.51 10.01 100.44 9.88C100.38 9.74 100.35 9.555 100.35 9.325C100.35 9.095 100.38 8.915 100.44 8.785C100.51 8.655 100.61 8.565 100.74 8.515C100.88 8.455 101.05 8.425 101.25 8.425C101.54 8.425 101.76 8.49 101.91 8.62C102.07 8.74 102.15 8.975 102.15 9.325Z" fill="black"/>
<path d="M93.7201 3.85C94.1901 3.85 94.5901 3.89 94.9201 3.97C95.2501 4.04 95.5351 4.175 95.7751 4.375C95.8851 4.465 95.9701 4.56 96.0301 4.66C96.0901 4.76 96.1201 4.86 96.1201 4.96C96.1301 5.05 96.1001 5.125 96.0301 5.185C95.9001 5.295 95.7501 5.335 95.5801 5.305C95.4201 5.265 95.2701 5.19 95.1301 5.08C95.0401 5 94.9501 4.935 94.8601 4.885C94.7801 4.835 94.6651 4.8 94.5151 4.78C94.3651 4.75 94.1451 4.735 93.8551 4.735C93.5551 4.735 93.3001 4.775 93.0901 4.855C92.8901 4.925 92.7351 5.025 92.6251 5.155C92.5251 5.285 92.4751 5.435 92.4751 5.605C92.4751 5.775 92.5401 5.93 92.6701 6.07C92.8101 6.21 92.9951 6.32 93.2251 6.4C93.4651 6.47 93.7251 6.505 94.0051 6.505C94.2051 6.505 94.4001 6.515 94.5901 6.535C94.7801 6.555 94.9651 6.595 95.1451 6.655C95.3251 6.715 95.4901 6.8 95.6401 6.91C95.8601 7.06 96.0301 7.235 96.1501 7.435C96.2801 7.635 96.3451 7.865 96.3451 8.125C96.3451 8.435 96.2901 8.705 96.1801 8.935C96.0701 9.155 95.9051 9.35 95.6851 9.52C95.5151 9.65 95.3401 9.765 95.1601 9.865C94.9901 9.965 94.7801 10.04 94.5301 10.09C94.2901 10.15 93.9751 10.18 93.5851 10.18C93.0851 10.18 92.6751 10.13 92.3551 10.03C92.0351 9.94 91.7601 9.785 91.5301 9.565C91.4501 9.475 91.3901 9.39 91.3501 9.31C91.3101 9.23 91.3001 9.15 91.3201 9.07C91.3401 8.99 91.3951 8.91 91.4851 8.83C91.5451 8.78 91.6151 8.75 91.6951 8.74C91.7851 8.72 91.8701 8.72 91.9501 8.74C92.0401 8.75 92.1201 8.775 92.1901 8.815C92.2601 8.845 92.3151 8.875 92.3551 8.905C92.4951 9.005 92.6301 9.085 92.7601 9.145C92.9001 9.195 93.0351 9.225 93.1651 9.235C93.2951 9.245 93.4201 9.25 93.5401 9.25C93.9001 9.24 94.1751 9.205 94.3651 9.145C94.5551 9.085 94.7251 9.005 94.8751 8.905C95.0051 8.805 95.1051 8.7 95.1751 8.59C95.2551 8.48 95.2951 8.355 95.2951 8.215C95.2951 8.115 95.2751 8.015 95.2351 7.915C95.2051 7.815 95.1301 7.73 95.0101 7.66C94.8801 7.58 94.7401 7.52 94.5901 7.48C94.4501 7.44 94.2301 7.42 93.9301 7.42C93.5201 7.42 93.1601 7.375 92.8501 7.285C92.5401 7.195 92.2801 7.07 92.0701 6.91C91.8701 6.74 91.7201 6.545 91.6201 6.325C91.5201 6.105 91.4701 5.865 91.4701 5.605C91.4701 5.325 91.5251 5.08 91.6351 4.87C91.7451 4.65 91.9001 4.465 92.1001 4.315C92.3001 4.165 92.5351 4.05 92.8051 3.97C93.0851 3.89 93.3901 3.85 93.7201 3.85Z" fill="black"/>
<path d="M83.7149 3.865C83.8349 3.865 83.9349 3.9 84.0149 3.97C84.1049 4.03 84.1699 4.11 84.2099 4.21C84.2499 4.31 84.2699 4.41 84.2699 4.51C84.2699 4.99 84.2699 5.405 84.2699 5.755C84.2699 6.105 84.2649 6.435 84.2549 6.745C84.2549 7.045 84.2449 7.365 84.2249 7.705C84.2049 8.035 84.1799 8.425 84.1499 8.875C84.1399 9.105 84.1249 9.325 84.1049 9.535C84.0849 9.735 84.0399 9.89 83.9699 10C83.8999 10.11 83.7749 10.15 83.5949 10.12C83.4849 10.09 83.3949 10.025 83.3249 9.925C83.2649 9.815 83.2249 9.675 83.2049 9.505C83.1849 9.335 83.1849 9.15 83.2049 8.95C83.2449 8.54 83.2749 8.19 83.2949 7.9C83.3149 7.61 83.3249 7.345 83.3249 7.105C83.3349 6.865 83.3349 6.625 83.3249 6.385C83.3249 6.145 83.3199 5.88 83.3099 5.59C83.2999 5.3 83.2899 4.955 83.2799 4.555C83.2899 4.295 83.3499 4.115 83.4599 4.015C83.5699 3.915 83.6549 3.865 83.7149 3.865ZM86.7299 9.085C86.7499 9.295 86.7549 9.48 86.7449 9.64C86.7349 9.79 86.7049 9.905 86.6549 9.985C86.6049 10.065 86.5149 10.11 86.3849 10.12C86.2349 10.13 86.1149 10.09 86.0249 10C85.9349 9.91 85.8749 9.795 85.8449 9.655C85.8149 9.505 85.7999 9.36 85.7999 9.22C85.8099 8.9 85.8149 8.615 85.8149 8.365C85.8149 8.115 85.8199 7.86 85.8299 7.6C85.8399 7.33 85.8599 7.005 85.8899 6.625C85.9299 6.145 85.9349 5.77 85.9049 5.5C85.8849 5.23 85.8399 5.04 85.7699 4.93C85.6999 4.81 85.6099 4.755 85.4999 4.765C85.4199 4.765 85.3299 4.805 85.2299 4.885C85.1299 4.955 85.0249 5.055 84.9149 5.185C84.8049 5.315 84.6949 5.47 84.5849 5.65C84.4749 5.82 84.3649 6.005 84.2549 6.205V4.84C84.4049 4.66 84.5399 4.51 84.6599 4.39C84.7899 4.26 84.9049 4.155 85.0049 4.075C85.1049 3.995 85.1999 3.94 85.2899 3.91C85.3899 3.87 85.4899 3.85 85.5899 3.85C85.7699 3.85 85.9349 3.88 86.0849 3.94C86.2449 3.99 86.3799 4.105 86.4899 4.285C86.6099 4.455 86.6949 4.715 86.7449 5.065C86.8049 5.415 86.8249 5.89 86.8049 6.49C86.7949 6.81 86.7799 7.07 86.7599 7.27C86.7499 7.46 86.7399 7.62 86.7299 7.75C86.7199 7.88 86.7099 8 86.6999 8.11C86.6999 8.22 86.6999 8.35 86.6999 8.5C86.7099 8.65 86.7199 8.845 86.7299 9.085ZM89.2649 9.07C89.2849 9.28 89.2899 9.465 89.2799 9.625C89.2699 9.775 89.2349 9.895 89.1749 9.985C89.1249 10.065 89.0349 10.11 88.9049 10.12C88.7549 10.13 88.6349 10.09 88.5449 10C88.4649 9.91 88.4099 9.795 88.3799 9.655C88.3499 9.505 88.3349 9.36 88.3349 9.22C88.3349 8.9 88.3299 8.615 88.3199 8.365C88.3199 8.115 88.3249 7.86 88.3349 7.6C88.3449 7.33 88.3599 7.005 88.3799 6.625C88.4099 6.265 88.4149 5.965 88.3949 5.725C88.3849 5.485 88.3599 5.295 88.3199 5.155C88.2799 5.015 88.2249 4.915 88.1549 4.855C88.0949 4.795 88.0299 4.765 87.9599 4.765C87.8699 4.765 87.7699 4.78 87.6599 4.81C87.5599 4.83 87.4549 4.88 87.3449 4.96C87.2349 5.04 87.1299 5.165 87.0299 5.335C86.9399 5.495 86.8599 5.72 86.7899 6.01L86.4449 4.855C86.5949 4.635 86.7349 4.46 86.8649 4.33C87.0049 4.19 87.1349 4.085 87.2549 4.015C87.3749 3.945 87.4899 3.9 87.5999 3.88C87.7099 3.85 87.8149 3.835 87.9149 3.835C88.1149 3.835 88.2999 3.875 88.4699 3.955C88.6499 4.025 88.8049 4.155 88.9349 4.345C89.0649 4.535 89.1599 4.805 89.2199 5.155C89.2899 5.495 89.3149 5.935 89.2949 6.475C89.2849 6.795 89.2699 7.055 89.2499 7.255C89.2399 7.445 89.2299 7.605 89.2199 7.735C89.2199 7.865 89.2149 7.985 89.2049 8.095C89.2049 8.205 89.2099 8.335 89.2199 8.485C89.2299 8.635 89.2449 8.83 89.2649 9.07Z" fill="black"/>
<path d="M79.5451 6.52C79.6451 6.54 79.7301 6.55 79.8001 6.55C79.8801 6.55 79.9551 6.545 80.0251 6.535C80.0951 6.525 80.1651 6.52 80.2351 6.52L80.3401 7.285C80.3201 7.315 80.2601 7.34 80.1601 7.36C80.0601 7.37 79.9451 7.375 79.8151 7.375C79.6951 7.365 79.5751 7.355 79.4551 7.345C79.0151 7.295 78.6251 7.28 78.2851 7.3C77.9551 7.32 77.6801 7.38 77.4601 7.48C77.2401 7.57 77.0751 7.705 76.9651 7.885C76.8551 8.055 76.8001 8.275 76.8001 8.545C76.8001 8.765 76.8701 8.925 77.0101 9.025C77.1501 9.125 77.3151 9.185 77.5051 9.205C77.6951 9.225 77.8751 9.225 78.0451 9.205C78.2251 9.185 78.3501 9.165 78.4201 9.145C78.7201 9.065 78.9701 8.975 79.1701 8.875C79.3801 8.775 79.5701 8.66 79.7401 8.53C79.9201 8.39 80.1051 8.225 80.2951 8.035L80.4301 9.115C80.1501 9.365 79.8901 9.55 79.6501 9.67C79.4201 9.79 79.1751 9.89 78.9151 9.97C78.7551 10.02 78.5451 10.06 78.2851 10.09C78.0351 10.12 77.7701 10.12 77.4901 10.09C77.2101 10.07 76.9451 10.005 76.6951 9.895C76.4451 9.785 76.2401 9.615 76.0801 9.385C75.9201 9.155 75.8401 8.855 75.8401 8.485C75.8401 8.005 75.9551 7.62 76.1851 7.33C76.4151 7.03 76.7151 6.81 77.0851 6.67C77.4651 6.53 77.8701 6.455 78.3001 6.445C78.7301 6.425 79.1451 6.45 79.5451 6.52ZM81.0001 6.43C81.0001 6.57 81.0001 6.745 81.0001 6.955C81.0101 7.165 81.0201 7.39 81.0301 7.63C81.0501 7.87 81.0851 8.1 81.1351 8.32C81.1851 8.54 81.2551 8.74 81.3451 8.92C81.4351 9.1 81.5501 9.235 81.6901 9.325C81.7701 9.365 81.8251 9.425 81.8551 9.505C81.8851 9.585 81.8901 9.67 81.8701 9.76C81.8601 9.84 81.8151 9.925 81.7351 10.015C81.6951 10.065 81.6051 10.09 81.4651 10.09C81.3351 10.09 81.1951 10.065 81.0451 10.015C80.8951 9.965 80.7751 9.89 80.6851 9.79C80.4951 9.57 80.3551 9.325 80.2651 9.055C80.1751 8.775 80.1151 8.49 80.0851 8.2C80.0651 7.91 80.0551 7.63 80.0551 7.36C80.0651 7.08 80.0701 6.83 80.0701 6.61C80.0701 6.21 80.0151 5.89 79.9051 5.65C79.8051 5.41 79.6751 5.23 79.5151 5.11C79.3551 4.98 79.1851 4.89 79.0051 4.84C78.8351 4.79 78.6801 4.765 78.5401 4.765C78.4001 4.755 78.2951 4.75 78.2251 4.75C78.0051 4.75 77.8201 4.775 77.6701 4.825C77.5301 4.865 77.4001 4.92 77.2801 4.99C77.1601 5.06 77.0201 5.145 76.8601 5.245C76.7901 5.285 76.6901 5.305 76.5601 5.305C76.4301 5.295 76.3101 5.21 76.2001 5.05C76.1601 4.97 76.1451 4.89 76.1551 4.81C76.1651 4.73 76.2001 4.65 76.2601 4.57C76.3301 4.49 76.4101 4.415 76.5001 4.345C76.7101 4.175 76.9651 4.05 77.2651 3.97C77.5651 3.89 77.8501 3.85 78.1201 3.85C78.2401 3.85 78.3901 3.855 78.5701 3.865C78.7501 3.865 78.9501 3.89 79.1701 3.94C79.3901 3.98 79.6051 4.05 79.8151 4.15C80.0351 4.25 80.2301 4.395 80.4001 4.585C80.5801 4.775 80.7251 5.02 80.8351 5.32C80.9451 5.62 81.0001 5.99 81.0001 6.43Z" fill="black"/>
<path d="M72.15 2.11C72.16 2.4 72.075 2.62 71.895 2.77C71.715 2.91 71.495 2.985 71.235 2.995C70.975 3.005 70.76 2.93 70.59 2.77C70.42 2.61 70.335 2.39 70.335 2.11C70.335 1.8 70.42 1.575 70.59 1.435C70.77 1.285 70.985 1.21 71.235 1.21C71.495 1.21 71.71 1.285 71.88 1.435C72.05 1.585 72.14 1.81 72.15 2.11ZM68.895 4.39C68.915 4.22 69 4.1 69.15 4.03C69.3 3.95 69.485 3.935 69.705 3.985C69.935 4.035 70.135 4.06 70.305 4.06C70.475 4.05 70.64 4.035 70.8 4.015C70.97 3.995 71.16 3.98 71.37 3.97C71.5 3.96 71.6 3.985 71.67 4.045C71.74 4.095 71.79 4.165 71.82 4.255C71.85 4.335 71.865 4.415 71.865 4.495C71.865 4.845 71.86 5.21 71.85 5.59C71.84 5.97 71.825 6.32 71.805 6.64C71.795 6.95 71.785 7.185 71.775 7.345C71.765 7.515 71.755 7.69 71.745 7.87C71.745 8.05 71.745 8.22 71.745 8.38C71.755 8.54 71.765 8.68 71.775 8.8C71.785 8.92 71.795 9.01 71.805 9.07L70.89 9.13C70.87 8.96 70.855 8.73 70.845 8.44C70.845 8.14 70.85 7.815 70.86 7.465C70.88 7.115 70.895 6.77 70.905 6.43C70.915 6.09 70.925 5.78 70.935 5.5C70.945 5.22 70.945 5.01 70.935 4.87C70.795 4.89 70.64 4.905 70.47 4.915C70.31 4.925 70.145 4.93 69.975 4.93C69.815 4.92 69.655 4.905 69.495 4.885C69.335 4.865 69.19 4.82 69.06 4.75C68.93 4.67 68.875 4.55 68.895 4.39ZM68.55 9.58C68.55 9.43 68.61 9.31 68.73 9.22C68.86 9.13 69.03 9.075 69.24 9.055C69.35 9.045 69.515 9.04 69.735 9.04C69.965 9.04 70.205 9.04 70.455 9.04C70.705 9.04 70.93 9.035 71.13 9.025C71.41 9.005 71.755 9 72.165 9.01C72.585 9.02 72.975 9.03 73.335 9.04C73.575 9.05 73.755 9.11 73.875 9.22C74.005 9.32 74.07 9.425 74.07 9.535C74.07 9.625 74.05 9.705 74.01 9.775C73.97 9.845 73.905 9.9 73.815 9.94C73.735 9.97 73.625 9.99 73.485 10C73.085 10.01 72.685 10.01 72.285 10C71.895 9.99 71.495 9.99 71.085 10C70.915 10 70.645 10 70.275 10C69.915 10.01 69.54 10.01 69.15 10C68.99 9.99 68.865 9.97 68.775 9.94C68.695 9.91 68.635 9.865 68.595 9.805C68.565 9.745 68.55 9.67 68.55 9.58Z" fill="black"/>
<path d="M60.8701 1.36C60.8801 1.3 60.9301 1.22 61.0201 1.12C61.1101 1.01 61.2751 0.96 61.5151 0.97C61.5351 0.97 61.5801 0.975 61.6501 0.985C61.7201 0.995 61.8101 1.005 61.9201 1.015C62.0301 1.015 62.1451 1.015 62.2651 1.015C62.3751 1.015 62.4951 1.015 62.6251 1.015C62.7651 1.005 62.8951 1 63.0151 1C63.1451 0.99 63.2601 0.985 63.3601 0.985C63.4701 0.975 63.5501 0.97 63.6001 0.97C63.7001 0.97 63.7851 0.995 63.8551 1.045C63.9251 1.095 63.9601 1.175 63.9601 1.285C63.9501 1.785 63.9401 2.265 63.9301 2.725C63.9201 3.185 63.9051 3.64 63.8851 4.09C63.8751 4.53 63.8651 4.97 63.8551 5.41C63.8451 5.85 63.8301 6.3 63.8101 6.76C63.8001 7.21 63.7851 7.68 63.7651 8.17C63.7651 8.32 63.7951 8.48 63.8551 8.65C63.9151 8.82 64.0201 8.96 64.1701 9.07C64.3201 9.18 64.5201 9.235 64.7701 9.235C65.0101 9.225 65.1851 9.21 65.2951 9.19C65.4151 9.17 65.5001 9.145 65.5501 9.115C65.6101 9.075 65.6701 9.045 65.7301 9.025C65.9501 8.915 66.1351 8.84 66.2851 8.8C66.4451 8.76 66.5751 8.82 66.6751 8.98C66.7151 9.03 66.7301 9.095 66.7201 9.175C66.7201 9.245 66.7001 9.325 66.6601 9.415C66.6201 9.495 66.5601 9.575 66.4801 9.655C66.4001 9.725 66.3051 9.79 66.1951 9.85C65.9851 9.96 65.7751 10.04 65.5651 10.09C65.3651 10.15 65.1251 10.18 64.8451 10.18C64.6151 10.18 64.3701 10.16 64.1101 10.12C63.8501 10.08 63.6251 9.975 63.4351 9.805C63.3051 9.685 63.1851 9.545 63.0751 9.385C62.9651 9.225 62.8801 9.035 62.8201 8.815C62.7701 8.595 62.7501 8.33 62.7601 8.02C62.7901 7.48 62.8151 6.955 62.8351 6.445C62.8651 5.925 62.8901 5.415 62.9101 4.915C62.9301 4.415 62.9451 3.915 62.9551 3.415C62.9651 2.915 62.9701 2.41 62.9701 1.9C62.9001 1.92 62.7901 1.935 62.6401 1.945C62.4901 1.955 62.3301 1.96 62.1601 1.96C61.9901 1.96 61.8401 1.96 61.7101 1.96C61.5801 1.95 61.5051 1.945 61.4851 1.945C61.3851 1.935 61.2851 1.905 61.1851 1.855C61.0851 1.795 61.0051 1.725 60.9451 1.645C60.8851 1.555 60.8601 1.46 60.8701 1.36Z" fill="black"/>
<path d="M53.3701 1.36C53.3801 1.3 53.4301 1.22 53.5201 1.12C53.6101 1.01 53.7751 0.96 54.0151 0.97C54.0351 0.97 54.0801 0.975 54.1501 0.985C54.2201 0.995 54.3101 1.005 54.4201 1.015C54.5301 1.015 54.6451 1.015 54.7651 1.015C54.8751 1.015 54.9951 1.015 55.1251 1.015C55.2651 1.005 55.3951 1 55.5151 1C55.6451 0.99 55.7601 0.985 55.8601 0.985C55.9701 0.975 56.0501 0.97 56.1001 0.97C56.2001 0.97 56.2851 0.995 56.3551 1.045C56.4251 1.095 56.4601 1.175 56.4601 1.285C56.4501 1.785 56.4401 2.265 56.4301 2.725C56.4201 3.185 56.4051 3.64 56.3851 4.09C56.3751 4.53 56.3651 4.97 56.3551 5.41C56.3451 5.85 56.3301 6.3 56.3101 6.76C56.3001 7.21 56.2851 7.68 56.2651 8.17C56.2651 8.32 56.2951 8.48 56.3551 8.65C56.4151 8.82 56.5201 8.96 56.6701 9.07C56.8201 9.18 57.0201 9.235 57.2701 9.235C57.5101 9.225 57.6851 9.21 57.7951 9.19C57.9151 9.17 58.0001 9.145 58.0501 9.115C58.1101 9.075 58.1701 9.045 58.2301 9.025C58.4501 8.915 58.6351 8.84 58.7851 8.8C58.9451 8.76 59.0751 8.82 59.1751 8.98C59.2151 9.03 59.2301 9.095 59.2201 9.175C59.2201 9.245 59.2001 9.325 59.1601 9.415C59.1201 9.495 59.0601 9.575 58.9801 9.655C58.9001 9.725 58.8051 9.79 58.6951 9.85C58.4851 9.96 58.2751 10.04 58.0651 10.09C57.8651 10.15 57.6251 10.18 57.3451 10.18C57.1151 10.18 56.8701 10.16 56.6101 10.12C56.3501 10.08 56.1251 9.975 55.9351 9.805C55.8051 9.685 55.6851 9.545 55.5751 9.385C55.4651 9.225 55.3801 9.035 55.3201 8.815C55.2701 8.595 55.2501 8.33 55.2601 8.02C55.2901 7.48 55.3151 6.955 55.3351 6.445C55.3651 5.925 55.3901 5.415 55.4101 4.915C55.4301 4.415 55.4451 3.915 55.4551 3.415C55.4651 2.915 55.4701 2.41 55.4701 1.9C55.4001 1.92 55.2901 1.935 55.1401 1.945C54.9901 1.955 54.8301 1.96 54.6601 1.96C54.4901 1.96 54.3401 1.96 54.2101 1.96C54.0801 1.95 54.0051 1.945 53.9851 1.945C53.8851 1.935 53.7851 1.905 53.6851 1.855C53.5851 1.795 53.5051 1.725 53.4451 1.645C53.3851 1.555 53.3601 1.46 53.3701 1.36Z" fill="black"/>
<path d="M49.6501 2.11C49.6601 2.4 49.5751 2.62 49.3951 2.77C49.2151 2.91 48.9951 2.985 48.7351 2.995C48.4751 3.005 48.26 2.93 48.09 2.77C47.92 2.61 47.835 2.39 47.835 2.11C47.835 1.8 47.92 1.575 48.09 1.435C48.27 1.285 48.4851 1.21 48.7351 1.21C48.9951 1.21 49.2101 1.285 49.3801 1.435C49.5501 1.585 49.6401 1.81 49.6501 2.11ZM46.3951 4.39C46.4151 4.22 46.5001 4.1 46.6501 4.03C46.8001 3.95 46.985 3.935 47.205 3.985C47.435 4.035 47.635 4.06 47.805 4.06C47.975 4.05 48.14 4.035 48.3 4.015C48.47 3.995 48.66 3.98 48.87 3.97C49 3.96 49.1 3.985 49.17 4.045C49.24 4.095 49.29 4.165 49.32 4.255C49.35 4.335 49.365 4.415 49.365 4.495C49.365 4.845 49.36 5.21 49.35 5.59C49.34 5.97 49.325 6.32 49.305 6.64C49.295 6.95 49.2851 7.185 49.2751 7.345C49.2651 7.515 49.255 7.69 49.245 7.87C49.245 8.05 49.245 8.22 49.245 8.38C49.255 8.54 49.2651 8.68 49.2751 8.8C49.2851 8.92 49.295 9.01 49.305 9.07L48.39 9.13C48.37 8.96 48.3551 8.73 48.3451 8.44C48.3451 8.14 48.3501 7.815 48.3601 7.465C48.3801 7.115 48.395 6.77 48.405 6.43C48.415 6.09 48.4251 5.78 48.4351 5.5C48.4451 5.22 48.4451 5.01 48.4351 4.87C48.2951 4.89 48.1401 4.905 47.9701 4.915C47.8101 4.925 47.645 4.93 47.475 4.93C47.315 4.92 47.155 4.905 46.995 4.885C46.835 4.865 46.6901 4.82 46.5601 4.75C46.4301 4.67 46.3751 4.55 46.3951 4.39ZM46.05 9.58C46.05 9.43 46.11 9.31 46.23 9.22C46.36 9.13 46.5301 9.075 46.7401 9.055C46.8501 9.045 47.0151 9.04 47.2351 9.04C47.4651 9.04 47.705 9.04 47.955 9.04C48.205 9.04 48.4301 9.035 48.6301 9.025C48.9101 9.005 49.2551 9 49.6651 9.01C50.0851 9.02 50.475 9.03 50.835 9.04C51.075 9.05 51.255 9.11 51.375 9.22C51.505 9.32 51.57 9.425 51.57 9.535C51.57 9.625 51.55 9.705 51.51 9.775C51.47 9.845 51.405 9.9 51.315 9.94C51.235 9.97 51.1251 9.99 50.9851 10C50.5851 10.01 50.185 10.01 49.785 10C49.395 9.99 48.995 9.99 48.585 10C48.415 10 48.1451 10 47.7751 10C47.4151 10.01 47.0401 10.01 46.6501 10C46.4901 9.99 46.3651 9.97 46.2751 9.94C46.1951 9.91 46.1351 9.865 46.0951 9.805C46.0651 9.745 46.05 9.67 46.05 9.58Z" fill="black"/>
<path d="M38.4149 3.88C38.4449 3.87 38.4899 3.88 38.5499 3.91C38.6099 3.93 38.6699 3.98 38.7299 4.06C38.7899 4.14 38.8349 4.265 38.8649 4.435C38.9149 4.685 38.9749 4.95 39.0449 5.23C39.1149 5.51 39.1899 5.8 39.2699 6.1C39.3499 6.4 39.4299 6.7 39.5099 7C39.5899 7.3 39.6599 7.595 39.7199 7.885C39.7899 8.175 39.8399 8.45 39.8699 8.71C39.9499 8.48 40.0249 8.275 40.0949 8.095C40.1649 7.915 40.2299 7.755 40.2899 7.615C40.3499 7.465 40.4099 7.33 40.4699 7.21C40.5299 7.08 40.5849 6.965 40.6349 6.865C40.6949 6.755 40.7449 6.65 40.7849 6.55C40.8349 6.43 40.8799 6.335 40.9199 6.265C40.9599 6.195 40.9949 6.14 41.0249 6.1C41.0649 6.06 41.0999 6.035 41.1299 6.025C41.1699 6.005 41.2099 5.995 41.2499 5.995C41.3099 5.995 41.3599 6.01 41.3999 6.04C41.4499 6.07 41.4999 6.125 41.5499 6.205C41.5999 6.275 41.6549 6.39 41.7149 6.55C41.8049 6.77 41.8849 6.96 41.9549 7.12C42.0249 7.27 42.0899 7.42 42.1499 7.57C42.2199 7.71 42.2899 7.87 42.3599 8.05C42.4399 8.23 42.5249 8.455 42.6149 8.725C42.6549 8.445 42.6999 8.18 42.7499 7.93C42.7999 7.67 42.8549 7.42 42.9149 7.18C42.9749 6.94 43.0349 6.705 43.0949 6.475C43.1649 6.245 43.2299 6.015 43.2899 5.785C43.3499 5.555 43.4099 5.33 43.4699 5.11C43.5299 4.88 43.5849 4.65 43.6349 4.42C43.6949 4.18 43.7799 4.03 43.8899 3.97C44.0099 3.91 44.0899 3.885 44.1299 3.895C44.3499 3.945 44.4799 4.055 44.5199 4.225C44.5599 4.395 44.5599 4.56 44.5199 4.72C44.4399 4.99 44.3599 5.275 44.2799 5.575C44.2099 5.875 44.1349 6.18 44.0549 6.49C43.9849 6.8 43.9099 7.115 43.8299 7.435C43.7599 7.745 43.6899 8.055 43.6199 8.365C43.5499 8.675 43.4799 8.97 43.4099 9.25C43.3799 9.41 43.3349 9.555 43.2749 9.685C43.2149 9.815 43.1349 9.92 43.0349 10C42.9449 10.08 42.8249 10.125 42.6749 10.135C42.5149 10.145 42.3849 10.105 42.2849 10.015C42.1949 9.935 42.1199 9.82 42.0599 9.67C42.0099 9.52 41.9449 9.365 41.8649 9.205C41.7549 8.965 41.6699 8.775 41.6099 8.635C41.5499 8.485 41.4949 8.345 41.4449 8.215C41.3949 8.075 41.3299 7.9 41.2499 7.69C41.1699 7.9 41.0949 8.08 41.0249 8.23C40.9649 8.38 40.9049 8.53 40.8449 8.68C40.7849 8.82 40.7149 8.995 40.6349 9.205C40.5749 9.375 40.5099 9.535 40.4399 9.685C40.3799 9.825 40.3049 9.935 40.2149 10.015C40.1249 10.105 39.9999 10.145 39.8399 10.135C39.6999 10.125 39.5749 10.08 39.4649 10C39.3649 9.92 39.2849 9.815 39.2249 9.685C39.1749 9.545 39.1349 9.395 39.1049 9.235C39.0549 8.925 38.9749 8.58 38.8649 8.2C38.7649 7.81 38.6549 7.41 38.5349 7C38.4249 6.58 38.3149 6.17 38.2049 5.77C38.0949 5.37 38.0099 5 37.9499 4.66C37.9399 4.55 37.9399 4.44 37.9499 4.33C37.9699 4.22 38.0149 4.125 38.0849 4.045C38.1549 3.955 38.2649 3.9 38.4149 3.88Z" fill="black"/>
<path d="M35.805 7.42C35.565 7.44 35.295 7.465 34.995 7.495C34.705 7.515 34.425 7.535 34.155 7.555C33.885 7.565 33.655 7.57 33.465 7.57C33.305 7.57 33.13 7.57 32.94 7.57C32.75 7.56 32.565 7.555 32.385 7.555C32.205 7.545 32.05 7.535 31.92 7.525C31.79 7.515 31.71 7.505 31.68 7.495V6.565C31.85 6.575 32.035 6.585 32.235 6.595C32.445 6.595 32.65 6.6 32.85 6.61C33.05 6.61 33.23 6.61 33.39 6.61C33.55 6.61 33.67 6.61 33.75 6.61C33.98 6.61 34.18 6.605 34.35 6.595C34.53 6.585 34.715 6.575 34.905 6.565C35.105 6.545 35.345 6.525 35.625 6.505C35.615 6.235 35.57 5.99 35.49 5.77C35.42 5.55 35.32 5.365 35.19 5.215C35.06 5.055 34.905 4.935 34.725 4.855C34.555 4.775 34.36 4.735 34.14 4.735C33.9 4.735 33.645 4.775 33.375 4.855C33.115 4.935 32.87 5.065 32.64 5.245C32.42 5.425 32.24 5.66 32.1 5.95C31.96 6.24 31.89 6.59 31.89 7C31.89 7.57 31.955 8.015 32.085 8.335C32.215 8.655 32.385 8.88 32.595 9.01C32.815 9.14 33.05 9.205 33.3 9.205C33.77 9.205 34.155 9.19 34.455 9.16C34.765 9.13 35.005 9.095 35.175 9.055C35.355 9.015 35.475 8.985 35.535 8.965C35.635 8.925 35.735 8.885 35.835 8.845C35.945 8.805 36.045 8.79 36.135 8.8C36.235 8.8 36.32 8.84 36.39 8.92C36.43 8.97 36.46 9.035 36.48 9.115C36.5 9.195 36.5 9.28 36.48 9.37C36.46 9.45 36.415 9.52 36.345 9.58C36.185 9.7 35.98 9.805 35.73 9.895C35.48 9.975 35.16 10.035 34.77 10.075C34.39 10.125 33.905 10.15 33.315 10.15C32.985 10.15 32.675 10.1 32.385 10C32.095 9.9 31.84 9.73 31.62 9.49C31.4 9.25 31.225 8.93 31.095 8.53C30.975 8.12 30.915 7.61 30.915 7C30.915 6.45 31.015 5.975 31.215 5.575C31.415 5.175 31.67 4.85 31.98 4.6C32.29 4.34 32.615 4.15 32.955 4.03C33.305 3.91 33.625 3.85 33.915 3.85C34.275 3.85 34.615 3.91 34.935 4.03C35.265 4.14 35.55 4.31 35.79 4.54C36.04 4.77 36.23 5.06 36.36 5.41C36.5 5.75 36.565 6.155 36.555 6.625C36.555 6.745 36.535 6.865 36.495 6.985C36.465 7.095 36.395 7.19 36.285 7.27C36.185 7.35 36.025 7.4 35.805 7.42Z" fill="black"/>
<path d="M27.15 2.11C27.16 2.4 27.0751 2.62 26.8951 2.77C26.7151 2.91 26.4951 2.985 26.2351 2.995C25.9751 3.005 25.76 2.93 25.59 2.77C25.42 2.61 25.335 2.39 25.335 2.11C25.335 1.8 25.42 1.575 25.59 1.435C25.77 1.285 25.9851 1.21 26.2351 1.21C26.4951 1.21 26.71 1.285 26.88 1.435C27.05 1.585 27.14 1.81 27.15 2.11ZM23.8951 4.39C23.9151 4.22 24 4.1 24.15 4.03C24.3 3.95 24.485 3.935 24.705 3.985C24.935 4.035 25.135 4.06 25.305 4.06C25.475 4.05 25.64 4.035 25.8 4.015C25.97 3.995 26.16 3.98 26.37 3.97C26.5 3.96 26.6 3.985 26.67 4.045C26.74 4.095 26.79 4.165 26.82 4.255C26.85 4.335 26.865 4.415 26.865 4.495C26.865 4.845 26.86 5.21 26.85 5.59C26.84 5.97 26.825 6.32 26.805 6.64C26.795 6.95 26.785 7.185 26.775 7.345C26.765 7.515 26.755 7.69 26.745 7.87C26.745 8.05 26.745 8.22 26.745 8.38C26.755 8.54 26.765 8.68 26.775 8.8C26.785 8.92 26.795 9.01 26.805 9.07L25.89 9.13C25.87 8.96 25.855 8.73 25.845 8.44C25.845 8.14 25.8501 7.815 25.8601 7.465C25.8801 7.115 25.8951 6.77 25.9051 6.43C25.9151 6.09 25.925 5.78 25.935 5.5C25.945 5.22 25.945 5.01 25.935 4.87C25.795 4.89 25.64 4.905 25.47 4.915C25.31 4.925 25.145 4.93 24.975 4.93C24.8151 4.92 24.655 4.905 24.495 4.885C24.335 4.865 24.19 4.82 24.06 4.75C23.93 4.67 23.8751 4.55 23.8951 4.39ZM23.55 9.58C23.55 9.43 23.61 9.31 23.73 9.22C23.86 9.13 24.03 9.075 24.24 9.055C24.35 9.045 24.5151 9.04 24.7351 9.04C24.9651 9.04 25.205 9.04 25.455 9.04C25.705 9.04 25.93 9.035 26.13 9.025C26.41 9.005 26.755 9 27.165 9.01C27.585 9.02 27.975 9.03 28.335 9.04C28.575 9.05 28.755 9.11 28.875 9.22C29.005 9.32 29.07 9.425 29.07 9.535C29.07 9.625 29.0501 9.705 29.01 9.775C28.97 9.845 28.905 9.9 28.8151 9.94C28.7351 9.97 28.6251 9.99 28.4851 10C28.0851 10.01 27.685 10.01 27.285 10C26.895 9.99 26.495 9.99 26.085 10C25.915 10 25.645 10 25.275 10C24.915 10.01 24.54 10.01 24.15 10C23.99 9.99 23.865 9.97 23.775 9.94C23.695 9.91 23.635 9.865 23.595 9.805C23.565 9.745 23.55 9.67 23.55 9.58Z" fill="black"/>
<path d="M15.8699 1.36C15.8799 1.3 15.9299 1.22 16.0199 1.12C16.1099 1.01 16.2749 0.96 16.5149 0.97C16.5349 0.97 16.5799 0.975 16.6499 0.985C16.7199 0.995 16.8099 1.005 16.9199 1.015C17.0299 1.015 17.1449 1.015 17.2649 1.015C17.3749 1.015 17.4949 1.015 17.6249 1.015C17.7649 1.005 17.8949 1 18.0149 1C18.1449 0.99 18.2599 0.985 18.3599 0.985C18.4699 0.975 18.5499 0.97 18.5999 0.97C18.6999 0.97 18.7849 0.995 18.8549 1.045C18.9249 1.095 18.9599 1.175 18.9599 1.285C18.9499 1.785 18.9399 2.265 18.9299 2.725C18.9199 3.185 18.9049 3.64 18.8849 4.09C18.8749 4.53 18.8649 4.97 18.8549 5.41C18.8449 5.85 18.8299 6.3 18.8099 6.76C18.7999 7.21 18.7849 7.68 18.7649 8.17C18.7649 8.32 18.7949 8.48 18.8549 8.65C18.9149 8.82 19.0199 8.96 19.1699 9.07C19.3199 9.18 19.5199 9.235 19.7699 9.235C20.0099 9.225 20.1849 9.21 20.2949 9.19C20.4149 9.17 20.4999 9.145 20.5499 9.115C20.6099 9.075 20.6699 9.045 20.7299 9.025C20.9499 8.915 21.1349 8.84 21.2849 8.8C21.4449 8.76 21.5749 8.82 21.6749 8.98C21.7149 9.03 21.7299 9.095 21.7199 9.175C21.7199 9.245 21.6999 9.325 21.6599 9.415C21.6199 9.495 21.5599 9.575 21.4799 9.655C21.3999 9.725 21.3049 9.79 21.1949 9.85C20.9849 9.96 20.7749 10.04 20.5649 10.09C20.3649 10.15 20.1249 10.18 19.8449 10.18C19.6149 10.18 19.3699 10.16 19.1099 10.12C18.8499 10.08 18.6249 9.975 18.4349 9.805C18.3049 9.685 18.1849 9.545 18.0749 9.385C17.9649 9.225 17.8799 9.035 17.8199 8.815C17.7699 8.595 17.7499 8.33 17.7599 8.02C17.7899 7.48 17.8149 6.955 17.8349 6.445C17.8649 5.925 17.8899 5.415 17.9099 4.915C17.9299 4.415 17.9449 3.915 17.9549 3.415C17.9649 2.915 17.9699 2.41 17.9699 1.9C17.8999 1.92 17.7899 1.935 17.6399 1.945C17.4899 1.955 17.3299 1.96 17.1599 1.96C16.9899 1.96 16.8399 1.96 16.7099 1.96C16.5799 1.95 16.5049 1.945 16.4849 1.945C16.3849 1.935 16.2849 1.905 16.1849 1.855C16.0849 1.795 16.0049 1.725 15.9449 1.645C15.8849 1.555 15.8599 1.46 15.8699 1.36Z" fill="black"/>
<path d="M8.36994 1.36C8.37994 1.3 8.42994 1.22 8.51994 1.12C8.60994 1.01 8.77494 0.96 9.01494 0.97C9.03494 0.97 9.07994 0.975 9.14994 0.985C9.21994 0.995 9.30994 1.005 9.41994 1.015C9.52994 1.015 9.64494 1.015 9.76494 1.015C9.87494 1.015 9.99494 1.015 10.1249 1.015C10.2649 1.005 10.3949 1 10.5149 1C10.6449 0.99 10.7599 0.985 10.8599 0.985C10.9699 0.975 11.0499 0.97 11.0999 0.97C11.1999 0.97 11.2849 0.995 11.3549 1.045C11.4249 1.095 11.4599 1.175 11.4599 1.285C11.4499 1.785 11.4399 2.265 11.4299 2.725C11.4199 3.185 11.4049 3.64 11.3849 4.09C11.3749 4.53 11.3649 4.97 11.3549 5.41C11.3449 5.85 11.3299 6.3 11.3099 6.76C11.2999 7.21 11.2849 7.68 11.2649 8.17C11.2649 8.32 11.2949 8.48 11.3549 8.65C11.4149 8.82 11.5199 8.96 11.6699 9.07C11.8199 9.18 12.0199 9.235 12.2699 9.235C12.5099 9.225 12.6849 9.21 12.7949 9.19C12.9149 9.17 12.9999 9.145 13.0499 9.115C13.1099 9.075 13.1699 9.045 13.2299 9.025C13.4499 8.915 13.6349 8.84 13.7849 8.8C13.9449 8.76 14.0749 8.82 14.1749 8.98C14.2149 9.03 14.2299 9.095 14.2199 9.175C14.2199 9.245 14.1999 9.325 14.1599 9.415C14.1199 9.495 14.0599 9.575 13.9799 9.655C13.8999 9.725 13.8049 9.79 13.6949 9.85C13.4849 9.96 13.2749 10.04 13.0649 10.09C12.8649 10.15 12.6249 10.18 12.3449 10.18C12.1149 10.18 11.8699 10.16 11.6099 10.12C11.3499 10.08 11.1249 9.975 10.9349 9.805C10.8049 9.685 10.6849 9.545 10.5749 9.385C10.4649 9.225 10.3799 9.035 10.3199 8.815C10.2699 8.595 10.2499 8.33 10.2599 8.02C10.2899 7.48 10.3149 6.955 10.3349 6.445C10.3649 5.925 10.3899 5.415 10.4099 4.915C10.4299 4.415 10.4449 3.915 10.4549 3.415C10.4649 2.915 10.4699 2.41 10.4699 1.9C10.3999 1.92 10.2899 1.935 10.1399 1.945C9.98994 1.955 9.82994 1.96 9.65994 1.96C9.48994 1.96 9.33994 1.96 9.20994 1.96C9.07994 1.95 9.00494 1.945 8.98494 1.945C8.88494 1.935 8.78494 1.905 8.68494 1.855C8.58494 1.795 8.50494 1.725 8.44494 1.645C8.38494 1.555 8.35994 1.46 8.36994 1.36Z" fill="black"/>
<path d="M3.75003 3.775C4.17003 3.775 4.56003 3.83 4.92003 3.94C5.28003 4.04 5.59503 4.215 5.86503 4.465C6.13503 4.705 6.34503 5.03 6.49503 5.44C6.64503 5.84 6.72003 6.34 6.72003 6.94C6.72003 7.7 6.59003 8.315 6.33003 8.785C6.08003 9.255 5.73003 9.6 5.28003 9.82C4.83003 10.04 4.32003 10.15 3.75003 10.15C3.34003 10.15 2.95503 10.09 2.59503 9.97C2.23503 9.85 1.92003 9.665 1.65003 9.415C1.38003 9.155 1.16503 8.825 1.00503 8.425C0.855029 8.025 0.780029 7.55 0.780029 7C0.780029 6.39 0.855029 5.88 1.00503 5.47C1.16503 5.05 1.38003 4.72 1.65003 4.48C1.92003 4.23 2.23503 4.05 2.59503 3.94C2.95503 3.83 3.34003 3.775 3.75003 3.775ZM3.75003 9.205C4.02003 9.205 4.27503 9.165 4.51503 9.085C4.76503 8.995 4.98003 8.86 5.16003 8.68C5.35003 8.5 5.49503 8.265 5.59503 7.975C5.70503 7.685 5.76003 7.33 5.76003 6.91C5.76003 6.39 5.67003 5.97 5.49003 5.65C5.31003 5.32 5.06503 5.075 4.75503 4.915C4.45503 4.755 4.12003 4.675 3.75003 4.675C3.48003 4.675 3.22503 4.72 2.98503 4.81C2.74503 4.89 2.53003 5.025 2.34003 5.215C2.16003 5.395 2.01503 5.635 1.90503 5.935C1.79503 6.225 1.74003 6.58 1.74003 7C1.74003 7.52 1.82503 7.945 1.99503 8.275C2.17503 8.595 2.41503 8.83 2.71503 8.98C3.02503 9.13 3.37003 9.205 3.75003 9.205Z" fill="black"/>
</svg>
