<svg width="825" height="366" viewBox="0 0 825 366" fill="none" xmlns="http://www.w3.org/2000/svg">
<rect width="825" height="365.907" fill="#373737"/>
<path d="M32 92.2144H38.0158C38.8501 99.811 44.866 104.51 53.736 104.51C62.7817 104.51 68.7097 99.5915 68.7097 92.0827C68.7097 86.023 64.7138 82.2466 55.6681 79.9193L50.7061 78.6459C38.8062 75.5282 33.5808 70.1271 33.5808 61.0375C33.5808 50.7184 41.5287 44 53.736 44C65.2407 44 73.1447 50.6306 73.7595 60.818H67.7437C66.8654 53.6604 61.6839 49.4889 53.736 49.4889C44.9538 49.4889 39.7284 53.7922 39.7284 61.0375C39.7284 66.9655 43.5047 70.4784 52.2869 72.7618L57.4245 74.123C69.7636 77.3285 74.8573 82.5979 74.8573 92.0827C74.8573 102.885 66.4702 109.998 53.736 109.998C41.1335 109.998 32.7465 103.148 32 92.2144Z" fill="#EAEAEA"/>
<path d="M98.5693 108.681H92.5535V45.3173H128.956V50.7623H98.5693V74.5621H126.409V79.9193H98.5693V108.681Z" fill="#EAEAEA"/>
<path d="M202.858 56.9977V108.681H197.238V45.3173H204.307L219.544 86.0669H220.027L235.177 45.3173H242.29V108.681H236.67V56.9977H236.231L222.355 93.7952H217.173L203.297 56.9977H202.858Z" fill="#EAEAEA"/>
<path d="M275.355 109.471C263.148 109.471 255.332 101.304 255.332 88.5698V81.544C255.332 68.8098 263.148 60.6423 275.355 60.6423C287.563 60.6423 295.379 68.8098 295.379 81.544V88.5698C295.379 101.304 287.563 109.471 275.355 109.471ZM275.355 65.7799C266.573 65.7799 261.084 72.0592 261.084 82.2905V87.8233C261.084 98.0546 266.573 104.334 275.355 104.334C284.138 104.334 289.627 98.0546 289.627 87.8233V82.2905C289.627 72.0592 284.138 65.7799 275.355 65.7799Z" fill="#EAEAEA"/>
<path d="M312.241 108.681V61.3888H317.73V69.9076H318.301C320.891 63.9357 326.424 60.5984 333.757 60.5984C344.076 60.5984 349.653 66.7021 349.653 77.9433V108.681H343.901V79.3924C343.901 70.1271 340.168 65.7799 332.22 65.7799C323.746 65.7799 317.993 71.7957 317.993 80.578V108.681H312.241Z" fill="#EAEAEA"/>
<path d="M386.539 109.471C374.331 109.471 366.515 101.304 366.515 88.5698V81.544C366.515 68.8098 374.331 60.6423 386.539 60.6423C398.746 60.6423 406.562 68.8098 406.562 81.544V88.5698C406.562 101.304 398.746 109.471 386.539 109.471ZM386.539 65.7799C377.756 65.7799 372.267 72.0592 372.267 82.2905V87.8233C372.267 98.0546 377.756 104.334 386.539 104.334C395.321 104.334 400.81 98.0546 400.81 87.8233V82.2905C400.81 72.0592 395.321 65.7799 386.539 65.7799Z" fill="#EAEAEA"/>
<path d="M32 197.554H40.8261C41.5287 204.141 46.7541 208.049 54.8338 208.049C62.8256 208.049 67.9632 203.965 67.9632 197.598C67.9632 192.461 64.5821 189.431 56.3707 187.411L50.5744 186.05C38.894 183.151 33.493 177.443 33.493 168.222C33.493 157.156 41.8361 149.999 54.746 149.999C67.085 149.999 75.5159 157.068 75.999 167.783H67.2167C66.5142 161.591 61.9035 157.946 54.8338 157.946C47.2372 157.946 42.6704 161.547 42.6704 167.563C42.6704 172.745 45.9637 175.73 53.8238 177.619L59.6201 179.068C71.9152 182.01 77.1406 187.411 77.1406 196.983C77.1406 208.664 68.4902 215.997 54.746 215.997C41.2653 215.997 32.6148 208.971 32 197.554Z" fill="#D3D3D3"/>
<path d="M101.863 214.68H92.6852V151.316H130.888V159.439H101.863V179.902H128.341V187.762H101.863V214.68Z" fill="#D3D3D3"/>
<path d="M205.888 191.275V214.68H197.94V151.316H207.864L220.73 189.826H221.345L234.167 151.316H244.135V214.68H236.187V191.275L236.933 165.719H236.275L224.419 199.794H217.656L205.8 165.719H205.142L205.888 191.275Z" fill="#D3D3D3"/>
<path d="M276.629 215.602C263.719 215.602 255.508 207.346 255.508 194.393V187.147C255.508 174.15 263.719 165.938 276.629 165.938C289.539 165.938 297.75 174.15 297.75 187.147V194.393C297.75 207.346 289.539 215.602 276.629 215.602ZM276.629 173.403C268.988 173.403 264.202 178.892 264.202 187.762V193.778C264.202 202.648 268.988 208.137 276.629 208.137C284.269 208.137 289.056 202.648 289.056 193.778V187.762C289.056 178.892 284.269 173.403 276.629 173.403Z" fill="#D3D3D3"/>
<path d="M312.109 214.68V166.816H320.628V175.16H321.243C323.746 169.232 329.147 165.894 336.304 165.894C346.711 165.894 352.332 172.13 352.332 183.634V214.68H343.506V185.83C343.506 177.619 340.212 173.754 333.143 173.754C325.809 173.754 320.891 178.892 320.891 186.62V214.68H312.109Z" fill="#D3D3D3"/>
<path d="M387.812 215.602C374.902 215.602 366.691 207.346 366.691 194.393V187.147C366.691 174.15 374.902 165.938 387.812 165.938C400.722 165.938 408.933 174.15 408.933 187.147V194.393C408.933 207.346 400.722 215.602 387.812 215.602ZM387.812 173.403C380.171 173.403 375.385 178.892 375.385 187.762V193.778C375.385 202.648 380.171 208.137 387.812 208.137C395.452 208.137 400.239 202.648 400.239 193.778V187.762C400.239 178.892 395.452 173.403 387.812 173.403Z" fill="#D3D3D3"/>
<path d="M32 302.367H46.9737C47.3689 307.022 50.9696 309.525 57.2928 309.525C62.9134 309.525 66.3824 306.934 66.3824 302.719C66.3824 299.162 64.2308 297.493 57.8637 296.132L50.3549 294.507C39.1136 292.092 33.2734 285.813 33.2734 276.284C33.2734 263.857 42.4509 255.997 57.0293 255.997C71.2126 255.997 80.7414 263.769 80.9609 275.538H65.9872C65.7237 271.103 62.3865 268.336 57.205 268.336C52.2869 268.336 49.1693 270.707 49.1693 274.44C49.1693 278.304 51.4526 280.324 57.205 281.509L64.4503 283.046C76.6576 285.593 82.1465 291.17 82.1465 300.918C82.1465 314.179 72.8813 321.908 56.9415 321.908C41.5726 321.908 32.2635 314.618 32 302.367Z" fill="#C2C2C2"/>
<path d="M109.152 320.634H93.0365V257.27H135.103V270.224H109.152V284.671H132.6V297.01H109.152V320.634Z" fill="#C2C2C2"/>
<path d="M212.607 301.752V320.634H199.433V257.27H215.724L223.409 291.741H224.287L231.971 257.27H248.262V320.634H235.089V301.752L237.548 276.679H236.362L228.985 305.748H218.71L211.333 276.679H210.147L212.607 301.752Z" fill="#C2C2C2"/>
<path d="M279.439 321.776C264.949 321.776 255.903 313.433 255.903 300.04V292.355C255.903 278.963 264.949 270.619 279.439 270.619C293.93 270.619 302.976 278.963 302.976 292.355V300.04C302.976 313.433 293.93 321.776 279.439 321.776ZM279.439 282.344C274.302 282.344 271.096 286.384 271.096 292.751V299.645C271.096 306.012 274.302 310.052 279.439 310.052C284.577 310.052 287.782 306.012 287.782 299.645V292.751C287.782 286.384 284.577 282.344 279.439 282.344Z" fill="#C2C2C2"/>
<path d="M311.846 320.634V271.761H326.951V279.709H327.785C330.025 273.913 335.119 270.619 341.881 270.619C352.507 270.619 358.216 277.031 358.216 289.062V320.634H342.671V292.531C342.671 286.296 340.256 283.31 335.206 283.31C330.332 283.31 327.346 286.867 327.346 292.707V320.634H311.846Z" fill="#C2C2C2"/>
<path d="M390.622 321.776C376.132 321.776 367.086 313.433 367.086 300.04V292.355C367.086 278.963 376.132 270.619 390.622 270.619C405.113 270.619 414.159 278.963 414.159 292.355V300.04C414.159 313.433 405.113 321.776 390.622 321.776ZM390.622 282.344C385.485 282.344 382.279 286.384 382.279 292.751V299.645C382.279 306.012 385.485 310.052 390.622 310.052C395.76 310.052 398.965 306.012 398.965 299.645V292.751C398.965 286.384 395.76 282.344 390.622 282.344Z" fill="#C2C2C2"/>
</svg>
