<svg width="64" height="57" viewBox="0 0 64 57" fill="none" xmlns="http://www.w3.org/2000/svg">
<path d="M13.873 3.80516C21.21 9.33216 29.103 20.5372 32 26.5502V42.4322C32 42.0942 31.87 42.4762 31.59 43.2992C30.078 47.7552 24.172 65.1462 10.667 51.2432C3.556 43.9232 6.848 36.6032 19.792 34.3932C12.387 35.6572 4.062 33.5682 1.778 25.3782C1.12 23.0222 0 8.51016 0 6.55016C0 -3.26784 8.579 -0.181838 13.873 3.80516ZM50.127 3.80516C42.79 9.33216 34.897 20.5372 32 26.5502V42.4322C32 42.0942 32.13 42.4762 32.41 43.2992C33.922 47.7552 39.828 65.1462 53.333 51.2432C60.444 43.9232 57.152 36.6032 44.208 34.3932C51.613 35.6572 59.938 33.5682 62.222 25.3782C62.88 23.0222 64 8.51016 64 6.55016C64 -3.26784 55.422 -0.181838 50.127 3.80516Z" fill="white"/>
</svg>
