<svg viewBox="0 0 110 34" width="110" xmlns="http://www.w3.org/2000/svg" class="sc-bBkKde eGKaXB"><title>The giffgaff logo</title><path d="M109.177 0.743005C108.78 0.643005 108.186 0.643005 107.709 0.643005C105.844 0.643005 104.276 1.04001 102.986 1.81401C101.219 2.98501 100.227 4.85101 100.227 7.41001V7.90701H94.233V7.62901C94.233 5.56501 95.403 4.59301 97.765 4.59301L98.659 4.69201V0.862005C98.262 0.762005 97.765 0.762005 97.091 0.762005C95.225 0.762005 93.757 1.16001 92.466 1.93301C90.601 3.10401 89.708 4.89001 89.708 7.52901V22.174H86.67C86.174 22.174 85.876 21.877 85.876 21.381V14.594C85.876 9.77201 83.316 7.33101 78.016 7.33101C76.449 7.33101 75.159 7.52901 73.988 8.02601C72.321 8.62101 71.328 9.59301 71.328 11.062V12.927H75.457V11.935C75.457 11.538 75.754 11.141 76.35 10.943C76.747 10.744 77.243 10.645 77.819 10.645C78.989 10.645 79.883 10.943 80.379 11.439C80.875 11.935 81.173 12.907 81.173 14.197V14.297H80.577C78.017 14.297 75.854 14.594 74.087 15.289C71.229 16.281 69.86 18.047 69.86 20.389C69.86 22.155 70.455 23.524 71.725 24.516C72.896 25.508 74.385 25.985 76.052 25.985C77.719 25.985 79.089 25.488 80.28 24.417C80.776 23.921 81.272 23.345 81.45 22.75H81.55L81.45 23.544C81.45 24.139 81.649 24.615 81.947 25.012C82.344 25.409 82.939 25.608 83.713 25.608H93.835V11.16H99.829V25.607H104.255V11.16H108.284V7.52901H104.255V7.23201C104.255 5.168 105.425 4.19601 107.787 4.19601L108.78 4.29501L109.176 0.743005H109.177ZM80.777 17.65H81.57V18.146C81.57 19.218 81.174 20.408 80.4 21.282C79.606 22.274 78.633 22.849 77.442 22.849C76.549 22.849 75.875 22.651 75.378 22.155C74.981 21.658 74.684 21.083 74.684 20.488C74.783 18.622 76.748 17.65 80.777 17.65ZM63.589 9.49401V9.99001H63.49C63.292 9.59301 62.795 9.09701 62.22 8.72001C61.049 7.82701 59.66 7.35001 57.893 7.35001C55.333 7.35001 53.368 8.24401 51.9 10.01C50.53 11.578 49.835 13.84 49.835 16.4C49.835 19.059 50.53 21.123 51.999 22.79C53.467 24.556 55.531 25.449 57.992 25.449C60.255 25.449 61.922 24.655 63.093 23.186V25.052C63.093 26.52 62.597 27.711 61.624 28.485C60.731 29.179 59.56 29.477 58.092 29.477C56.8482 29.4779 55.6156 29.2421 54.46 28.782L52.991 28.187L51.621 31.719C53.586 32.712 55.651 33.287 58.012 33.287C60.672 33.287 62.835 32.593 64.602 31.323C66.566 29.854 67.638 27.691 67.638 24.734V12.352C67.638 11.855 67.936 11.558 68.432 11.558H69.782V7.72801H65.554C64.859 7.72801 64.482 7.92601 64.085 8.22401C63.788 8.70001 63.589 9.09701 63.589 9.49401ZM55.532 12.63C56.325 11.736 57.298 11.36 58.667 11.36C61.704 11.36 63.192 13.126 63.192 16.559C63.192 18.424 62.795 19.793 61.922 20.686C61.128 21.48 60.156 21.758 58.965 21.758C57.496 21.758 56.405 21.162 55.631 20.19C54.857 19.218 54.46 17.829 54.46 16.26C54.46 14.693 54.857 13.522 55.532 12.63ZM49.339 11.36V7.82601H45.409V7.53001C45.409 5.46701 46.481 4.49401 48.843 4.49401L49.736 4.59401V0.763005C49.339 0.663005 48.843 0.663005 48.268 0.663005C46.402 0.663005 44.834 1.06001 43.544 1.73501C41.778 2.90501 40.785 4.77101 40.785 7.33101V7.82701H34.792V7.53001C34.792 5.46701 35.863 4.49401 38.324 4.49401L39.317 4.59401V0.763005C38.92 0.663005 38.324 0.663005 37.749 0.663005C35.883 0.663005 34.414 1.06001 33.124 1.73501C31.259 2.90501 30.366 4.77101 30.366 7.33101V22.075H27.03C26.534 22.075 26.237 21.877 26.237 21.282V10.189C26.237 9.29601 26.038 8.72001 25.641 8.32301C25.244 8.02601 24.748 7.82701 23.875 7.82701H15.52C14.826 7.82701 14.35 8.02601 14.052 8.32301C13.754 8.62101 13.655 9.01801 13.655 9.49401C13.555 9.69201 13.555 9.79201 13.655 9.89101H13.555C13.258 9.49401 12.861 8.99801 12.385 8.62101C11.213 7.82701 9.825 7.35101 8.058 7.35101C5.498 7.35101 3.533 8.24401 2.064 10.01C0.694 11.578 0.099 13.74 0 16.3C0.1 18.86 0.794 21.023 2.163 22.79C3.632 24.556 5.597 25.449 8.157 25.449C10.42 25.449 12.087 24.655 13.158 23.186V24.953C13.158 26.52 12.662 27.612 11.69 28.386C10.797 29.08 9.626 29.378 8.058 29.378C6.887 29.378 5.696 29.179 4.525 28.782L3.056 28.187L1.686 31.719C3.652 32.712 5.816 33.287 8.078 33.287C10.738 33.287 12.801 32.593 14.568 31.323C16.532 29.854 17.604 27.592 17.604 24.734V12.352C17.604 11.955 17.902 11.657 18.398 11.657H21.058C21.554 11.657 21.851 11.855 21.851 12.451V23.445C21.851 24.337 22.05 24.913 22.447 25.211C22.744 25.608 23.34 25.806 24.213 25.806H34.93V11.359H40.924V25.885H45.449V11.34H49.339V11.36ZM5.716 12.63C6.51 11.736 7.482 11.26 8.951 11.26C11.988 11.26 13.476 13.026 13.476 16.46C13.476 18.325 13.079 19.793 12.106 20.686C11.412 21.381 10.439 21.758 9.149 21.758C7.779 21.758 6.589 21.162 5.815 20.19C5.041 19.218 4.645 17.829 4.645 16.26C4.645 14.693 4.942 13.522 5.715 12.63H5.716Z"></path><path d="M21.8311 0.643982H26.3561V5.16798H21.8311V0.643982Z"></path></svg>