<svg xmlns="http://www.w3.org/2000/svg" width="601" height="168" viewBox="0 0 601 168" fill="none">
  <g clip-path="url(#clip0_511_1278)">
    <path d="M323.833 121.208V157.4C319.456 160.662 314.55 163.145 309.33 164.742C303.974 166.321 298.414 167.099 292.83 167.051C286.07 167.153 279.349 166 273.009 163.652C267.382 161.525 262.245 158.277 257.91 154.105C253.706 150.011 250.409 145.079 248.233 139.628C245.926 133.782 244.772 127.545 244.835 121.26C244.762 114.936 245.87 108.654 248.104 102.737C252.222 91.705 260.918 82.999 271.946 78.8687C278.123 76.558 284.679 75.4229 291.273 75.522C294.682 75.5032 298.086 75.7897 301.443 76.3782C304.438 76.9198 307.38 77.7184 310.238 78.765C312.825 79.73 315.304 80.9648 317.632 82.4489C319.837 83.8813 321.912 85.5047 323.833 87.3004L319.059 94.8499C318.443 95.9555 317.387 96.7476 316.153 97.0292C314.79 97.2656 313.389 96.9481 312.262 96.1471L308.266 93.7862C306.819 92.9657 305.299 92.2796 303.726 91.7367C301.889 91.1238 300.007 90.6554 298.097 90.3357C295.715 89.9262 293.301 89.7351 290.884 89.765C286.789 89.7087 282.724 90.4671 278.924 91.9961C275.44 93.4113 272.319 95.5926 269.792 98.3782C267.191 101.264 265.213 104.656 263.981 108.34C262.562 112.516 261.869 116.903 261.931 121.312C261.853 125.973 262.599 130.61 264.137 135.01C265.455 138.813 267.559 142.296 270.311 145.232C272.996 147.998 276.255 150.142 279.858 151.51C286.725 153.992 294.171 154.389 301.262 152.652C303.885 151.945 306.439 150.998 308.889 149.824V133.713H297.604C296.649 133.793 295.706 133.462 295.009 132.805C294.413 132.228 294.084 131.429 294.101 130.6V121.208H323.833ZM350.995 113.607C352.692 110.161 355.097 107.111 358.052 104.657C360.791 102.481 364.206 101.334 367.703 101.414C370.2 101.281 372.674 101.954 374.76 103.333L373.774 114.774C373.646 115.379 373.339 115.931 372.892 116.357C372.429 116.681 371.873 116.845 371.309 116.824C370.386 116.793 369.466 116.689 368.559 116.513C367.376 116.308 366.179 116.204 364.979 116.201C363.443 116.174 361.915 116.42 360.465 116.928C359.157 117.42 357.952 118.15 356.91 119.081C355.819 120.058 354.883 121.195 354.134 122.454C353.264 123.896 352.509 125.406 351.877 126.968V166.065H336.804V102.581H345.755C346.916 102.467 348.081 102.761 349.05 103.411C349.794 104.244 350.233 105.305 350.295 106.421L350.995 113.607ZM380.467 111.428C387.628 104.79 397.09 101.198 406.852 101.414C410.26 101.353 413.646 101.971 416.814 103.23C419.636 104.397 422.169 106.168 424.234 108.418C426.302 110.66 427.875 113.312 428.852 116.201C429.928 119.393 430.463 122.743 430.434 126.112V166.065H423.481C422.338 166.13 421.196 165.907 420.161 165.416C419.239 164.812 418.573 163.888 418.293 162.822L416.944 158.23C415.444 159.591 413.868 160.864 412.222 162.043C410.733 163.112 409.142 164.033 407.474 164.793C405.807 165.539 404.069 166.113 402.285 166.506C400.234 166.904 398.148 167.096 396.059 167.076C393.546 167.097 391.045 166.738 388.639 166.013C386.47 165.345 384.464 164.232 382.75 162.744C381.075 161.272 379.761 159.435 378.91 157.374C377.963 154.99 377.504 152.44 377.561 149.876C377.563 148.243 377.834 146.621 378.366 145.076C378.932 143.411 379.813 141.87 380.96 140.536C382.335 138.953 383.934 137.581 385.708 136.463C387.922 135.028 390.323 133.902 392.842 133.117C396.065 132.062 399.372 131.281 402.727 130.782C407.021 130.132 411.355 129.777 415.698 129.718V125.982C415.972 122.607 415.004 119.249 412.974 116.539C410.957 114.423 408.109 113.303 405.191 113.477C403.1 113.42 401.013 113.709 399.017 114.333C397.53 114.842 396.097 115.494 394.736 116.279L391.363 118.225C390.34 118.819 389.174 119.124 387.991 119.107C387.016 119.139 386.058 118.847 385.267 118.277C384.545 117.745 383.937 117.074 383.476 116.305L380.467 111.428ZM415.491 138.954C411.75 139.088 408.023 139.478 404.335 140.121C401.839 140.507 399.405 141.222 397.097 142.249C395.549 142.89 394.204 143.939 393.205 145.284C391.261 148.336 391.774 152.342 394.425 154.805C396.249 156.039 398.425 156.649 400.625 156.543C403.436 156.611 406.225 156.025 408.771 154.831C411.294 153.502 413.567 151.747 415.491 149.642V138.954ZM499.885 74.0951V166.065H490.545C488.752 166.228 487.113 165.043 486.705 163.289L485.408 157.166C482.912 160.039 479.925 162.446 476.588 164.275C473.004 166.106 469.014 166.999 464.991 166.869C458.289 166.979 451.951 163.824 447.998 158.411C445.779 155.394 444.143 151.989 443.172 148.371C441.971 143.853 441.395 139.192 441.46 134.517C441.425 130.069 442.073 125.642 443.38 121.39C444.558 117.616 446.432 114.097 448.906 111.013C451.226 108.089 454.157 105.707 457.493 104.034C460.992 102.302 464.848 101.414 468.753 101.44C471.871 101.353 474.972 101.918 477.859 103.1C480.353 104.199 482.636 105.727 484.604 107.614V74.1211L499.885 74.0951ZM484.682 118.796C483.176 116.882 481.238 115.353 479.026 114.333C476.938 113.466 474.698 113.025 472.437 113.036C470.283 113.006 468.148 113.449 466.184 114.333C464.262 115.221 462.594 116.577 461.333 118.277C459.89 120.277 458.859 122.543 458.297 124.944C457.552 128.079 457.203 131.296 457.26 134.517C457.202 137.68 457.497 140.838 458.142 143.935C458.606 146.188 459.486 148.334 460.736 150.265C461.746 151.801 463.166 153.024 464.835 153.793C466.529 154.526 468.36 154.889 470.205 154.857C473.041 154.952 475.849 154.27 478.326 152.885C480.764 151.404 482.917 149.497 484.682 147.256V118.796ZM530.524 74.1211V166.065H515.243V74.1211H530.524ZM557.583 136.23C557.744 139.119 558.33 141.969 559.321 144.687C560.099 146.875 561.318 148.879 562.901 150.576C564.349 152.102 566.123 153.282 568.09 154.027C570.258 154.819 572.553 155.206 574.861 155.168C577.028 155.211 579.189 154.922 581.269 154.312C582.886 153.807 584.457 153.164 585.965 152.392C587.314 151.692 588.56 151.043 589.493 150.473C590.38 149.939 591.39 149.644 592.425 149.617C593.565 149.537 594.658 150.084 595.279 151.043L599.767 156.699C598.142 158.643 596.225 160.323 594.085 161.68C592.021 163.005 589.81 164.084 587.496 164.897C585.223 165.699 582.877 166.272 580.491 166.609C578.214 166.936 575.916 167.101 573.616 167.102C569.406 167.147 565.226 166.399 561.293 164.897C557.559 163.477 554.178 161.264 551.382 158.411C548.468 155.36 546.215 151.738 544.767 147.775C543.076 143.058 542.258 138.074 542.354 133.065C542.325 128.899 543.037 124.762 544.456 120.845C545.786 117.155 547.841 113.767 550.5 110.883C553.193 108.006 556.453 105.718 560.074 104.164C564.113 102.428 568.467 101.544 572.864 101.569C576.643 101.523 580.398 102.174 583.941 103.489C587.221 104.7 590.196 106.612 592.658 109.093C595.186 111.664 597.14 114.741 598.392 118.121C599.833 122.031 600.536 126.174 600.467 130.341C600.597 131.935 600.339 133.537 599.715 135.01C599.046 135.89 597.958 136.346 596.861 136.204L557.583 136.23ZM586.718 127.02C586.716 125.119 586.427 123.23 585.861 121.416C585.31 119.728 584.428 118.167 583.267 116.824C582.119 115.465 580.671 114.391 579.038 113.685C577.15 112.894 575.118 112.505 573.071 112.543C569.246 112.342 565.502 113.7 562.694 116.305C559.954 119.254 558.251 123.016 557.842 127.02L586.718 127.02ZM212.95 11.4158C199.376 -2.16921 177.472 -2.53657 163.45 10.5856C162.775 11.2067 162.39 12.0811 162.386 12.9983C162.367 13.9195 162.723 14.809 163.372 15.463L167.861 19.9512C169.057 21.1424 170.946 21.2749 172.297 20.2625C175.816 17.6067 180.108 16.1762 184.516 16.1894C195.792 16.1892 204.934 25.3302 204.934 36.6065C204.934 42.0154 202.788 47.2034 198.967 51.0314C170.766 79.3876 132.915 0.156323 47.2754 40.9135C41.4537 43.6176 38.9265 50.5292 41.6307 56.3508C41.7701 56.6509 41.9222 56.9448 42.0867 57.2319L56.7707 82.6305C59.9588 88.1292 66.9662 90.0571 72.5183 86.9631L72.8816 86.7555L72.5962 86.9631L79.108 83.3051C86.3718 78.8063 93.2373 73.6941 99.6292 68.0244C100.928 66.8129 102.922 66.7464 104.299 67.8687C105.732 69.0364 105.947 71.1444 104.779 72.5773C104.636 72.7532 104.475 72.914 104.299 73.0574C97.6292 79.0643 90.4505 84.4808 82.8438 89.2461L82.6103 89.3758L76.0985 93.0079C73.3538 94.5635 70.2511 95.3772 67.0962 95.3688C60.4423 95.3852 54.2835 91.856 50.9334 86.107L37.0277 62.1352C10.3578 80.9702 -5.83087 117.265 2.86019 163.185C3.17142 164.786 4.576 165.94 6.20689 165.935H22.0065C23.7577 166.002 25.2685 164.717 25.4829 162.977C27.1386 150.275 38.7778 141.321 51.4797 142.977C61.911 144.336 70.1209 152.546 71.4806 162.977C71.6875 164.647 73.0932 165.909 74.7754 165.935H90.1858C91.8934 165.936 93.3369 164.671 93.5585 162.977C95.1574 150.283 106.745 141.288 119.439 142.887C129.939 144.209 138.208 152.478 139.53 162.977C139.74 164.667 141.175 165.935 142.877 165.935H158.106C159.948 165.935 161.45 164.457 161.478 162.614C161.842 141.133 167.627 116.461 184.153 104.112C241.203 61.3569 226.181 24.6988 212.95 11.4158ZM154.655 76.0668L143.759 70.5928C143.745 66.8102 146.8 63.7324 150.583 63.7184C154.365 63.7044 157.443 66.7594 157.457 70.542C157.465 72.734 156.424 74.7975 154.655 76.0928V76.0668Z" fill="black"/>
  </g>
  <defs>
    <clipPath id="clip0_511_1278">
      <rect width="600" height="166.124" fill="white" transform="translate(0.5 0.980469)"/>
    </clipPath>
  </defs>
</svg>