<svg width="24" height="36" viewBox="0 0 24 36" fill="none" xmlns="http://www.w3.org/2000/svg">
<g clip-path="url(#clip0_1649_2170)">
<path d="M18.5 25.866L22.1961 28L18.5 30.1339L18.5 25.866Z" fill="#FF0000" stroke="#FF0000"/>
<path d="M11 28H20" stroke="#FF0000"/>
<path d="M11 28H20" stroke="#FF0000"/>
<path d="M11 28H20" stroke="#FF0000"/>
<g clip-path="url(#clip1_1649_2170)">
<path d="M23.5 20L23.5 36" stroke="#FF0000"/>
<path d="M23.5 20L23.5 36" stroke="#FF0000"/>
<path d="M23.5 20L23.5 36" stroke="#FF0000"/>
</g>
<g clip-path="url(#clip2_1649_2170)">
<path d="M23.5 20L23.5 36" stroke="#FF0000"/>
<path d="M23.5 20L23.5 36" stroke="#FF0000"/>
<path d="M23.5 20L23.5 36" stroke="#FF0000"/>
</g>
<path d="M5.5 25.866L1.80393 28L5.5 30.1339L5.5 25.866Z" fill="#FF0000" stroke="#FF0000"/>
<path d="M11 28L4 28" stroke="#FF0000"/>
<path d="M11 28L4 28" stroke="#FF0000"/>
<path d="M11 28L4 28" stroke="#FF0000"/>
<g clip-path="url(#clip3_1649_2170)">
<path d="M0.5 20L0.500001 36" stroke="#FF0000"/>
<path d="M0.5 20L0.500001 36" stroke="#FF0000"/>
<path d="M0.5 20L0.500001 36" stroke="#FF0000"/>
</g>
<g clip-path="url(#clip4_1649_2170)">
<path d="M0.5 20L0.500001 36" stroke="#FF0000"/>
<path d="M0.5 20L0.500001 36" stroke="#FF0000"/>
<path d="M0.5 20L0.500001 36" stroke="#FF0000"/>
</g>
<rect width="21" height="16" transform="translate(1.5)" fill="#FF0000"/>
<path d="M5.38666 12V10.858L8.41649 7.88778C8.70626 7.59517 8.94774 7.33523 9.14092 7.10795C9.33411 6.88068 9.47899 6.66051 9.57558 6.44744C9.67217 6.23437 9.72047 6.0071 9.72047 5.76562C9.72047 5.49006 9.65797 5.25426 9.53297 5.05824C9.40797 4.85938 9.23609 4.70597 9.01734 4.59801C8.79859 4.49006 8.55001 4.43608 8.27161 4.43608C7.98467 4.43608 7.73325 4.49574 7.51734 4.61506C7.30143 4.73153 7.13382 4.89773 7.0145 5.11364C6.89803 5.32955 6.83979 5.58665 6.83979 5.88494H5.33553C5.33553 5.33097 5.46195 4.84943 5.71479 4.44034C5.96763 4.03125 6.31564 3.71449 6.75882 3.49006C7.20484 3.26562 7.71621 3.15341 8.29291 3.15341C8.87814 3.15341 9.39234 3.26278 9.83553 3.48153C10.2787 3.70028 10.6225 4 10.8668 4.38068C11.1139 4.76136 11.2375 5.19602 11.2375 5.68466C11.2375 6.01136 11.175 6.33239 11.05 6.64773C10.925 6.96307 10.7048 7.3125 10.3895 7.69602C10.077 8.07955 9.63808 8.54403 9.07274 9.08949L7.56848 10.6193V10.679H11.3696V12H5.38666ZM12.0146 10.3807V9.12358L15.7177 3.27273H16.766V5.0625H16.1268L13.6339 9.01278V9.08097H18.803V10.3807H12.0146ZM16.178 12V9.99716L16.195 9.43466V3.27273H17.6865V12H16.178Z" fill="white"/>
</g>
<defs>
<clipPath id="clip0_1649_2170">
<rect width="24" height="36" fill="white"/>
</clipPath>
<clipPath id="clip1_1649_2170">
<rect width="16" height="16" fill="white" transform="translate(31.5 20) rotate(90)"/>
</clipPath>
<clipPath id="clip2_1649_2170">
<rect width="16" height="16" fill="white" transform="translate(31.5 20) rotate(90)"/>
</clipPath>
<clipPath id="clip3_1649_2170">
<rect width="16" height="16" fill="white" transform="matrix(4.37114e-08 1 1 -4.37114e-08 -7.5 20)"/>
</clipPath>
<clipPath id="clip4_1649_2170">
<rect width="16" height="16" fill="white" transform="matrix(4.37114e-08 1 1 -4.37114e-08 -7.5 20)"/>
</clipPath>
</defs>
</svg>
