<svg width="673" height="382" viewBox="0 0 673 382" fill="none" xmlns="http://www.w3.org/2000/svg">
<path fill-rule="evenodd" clip-rule="evenodd" d="M11.4896 12.3723C11.5196 12.1886 11.5644 12.0124 11.624 11.8435C11.7173 11.6035 11.8373 11.3768 11.984 11.1635C12.1307 10.9635 12.2973 10.7768 12.484 10.6035C12.6707 10.4435 12.8707 10.3035 13.084 10.1835C13.3107 10.0635 13.544 9.97683 13.784 9.9235C14.0373 9.85683 14.284 9.8235 14.524 9.8235C14.764 9.8235 15.0107 9.85683 15.264 9.9235C15.504 9.97683 15.7373 10.0635 15.964 10.1835C16.1773 10.3035 16.3773 10.4435 16.564 10.6035C16.7507 10.7768 16.9173 10.9635 17.064 11.1635C17.1219 11.2478 17.1757 11.3341 17.2253 11.4225L20.7233 11.4625C25.39 11.5025 32.01 11.5425 40.5833 11.5825C49.1566 11.6092 58.69 11.6358 69.1833 11.6625C79.6633 11.6892 91.5566 11.7092 104.863 11.7225C118.183 11.7358 132.157 11.7492 146.783 11.7625C161.423 11.7758 174.95 11.7892 187.363 11.8025C199.79 11.8158 211.457 11.8225 222.363 11.8225C233.27 11.8358 244.403 11.8425 255.763 11.8425C267.123 11.8425 277.61 11.8492 287.223 11.8625H314.963C323.83 11.8625 331.763 11.7025 338.763 11.3825C345.75 11.0492 353.69 10.5025 362.583 9.7425C371.477 8.99583 380.15 8.2825 388.603 7.6025C397.043 6.9225 404.763 6.31583 411.763 5.7825C418.763 5.24917 425.057 4.75583 430.643 4.3025C436.243 3.8625 441.29 3.5225 445.783 3.2825C450.263 3.0425 454.303 2.87583 457.903 2.7825C461.503 2.67583 464.83 2.6025 467.883 2.5625C470.937 2.5225 473.79 2.46917 476.443 2.4025C479.11 2.34917 481.83 2.31583 484.603 2.3025C487.363 2.28917 489.817 2.2225 491.963 2.1025C494.11 1.9825 496.017 1.84917 497.683 1.7025C499.35 1.56917 501.25 1.3825 503.383 1.1425C505.517 0.915834 507.717 0.709167 509.983 0.5225C512.25 0.349167 514.93 0.215833 518.023 0.1225C521.117 0.0291666 523.623 -0.0108333 525.543 0.00250001C527.477 0.0158333 529.53 0.0424999 531.703 0.0824999C533.89 0.135833 536.603 0.335834 539.843 0.6825C543.083 1.01583 546.25 1.37583 549.343 1.7625C552.45 2.14917 555.517 2.52917 558.543 2.9025C561.583 3.27583 564.73 3.5625 567.983 3.7625C571.237 3.94917 573.997 4.07583 576.263 4.1425C578.53 4.19583 580.85 4.2825 583.223 4.4025C585.597 4.53583 587.77 4.6225 589.743 4.6625C591.717 4.7025 593.43 4.71583 594.883 4.7025C596.337 4.67583 597.777 4.60917 599.203 4.5025C600.63 4.3825 602.137 4.29583 603.723 4.2425C605.31 4.18917 606.89 4.09583 608.463 3.9625C610.037 3.82917 611.657 3.7225 613.323 3.6425C614.99 3.5625 617.03 3.5025 619.443 3.4625C621.87 3.4225 624.11 3.5025 626.163 3.7025C628.217 3.88917 630.29 3.98917 632.383 4.0025C633.897 4.0122 635.344 4.01484 636.723 4.01043C637.204 3.68299 637.724 3.43367 638.283 3.2625C638.318 3.25154 638.352 3.24085 638.386 3.23045C638.573 3.173 638.761 3.12443 638.952 3.08471C639.4 2.9899 639.85 2.9425 640.303 2.9425C640.883 2.95366 641.445 3.03949 641.988 3.2C642.354 3.03643 642.731 2.90209 643.117 2.79697C643.159 2.78547 643.201 2.77431 643.244 2.7635C643.266 2.75796 643.288 2.75247 643.31 2.74713C643.551 2.68805 643.795 2.64017 644.044 2.6035C644.844 2.49683 645.644 2.51683 646.444 2.6635C647.244 2.8235 648.004 3.09683 648.724 3.4835C649.313 3.817 649.847 4.22464 650.325 4.70642C650.559 4.93892 650.775 5.18456 650.974 5.44334C651.35 5.92742 651.66 6.45414 651.904 7.0235C651.914 7.04704 651.924 7.07062 651.934 7.09423C651.949 7.13005 651.963 7.16595 651.978 7.20192C652.155 7.63968 652.29 8.09354 652.384 8.5635L652.604 9.7635L653.364 14.1435C653.871 17.0768 654.217 19.3168 654.404 20.8635C654.591 22.4235 654.791 24.0035 655.004 25.6035C655.217 27.2168 655.504 29.0502 655.864 31.1035C656.224 33.1568 656.484 34.8968 656.644 36.3235C656.817 37.7635 657.004 39.2702 657.204 40.8435C657.391 42.4035 657.571 43.8902 657.744 45.3035C657.917 46.7302 658.104 48.2168 658.304 49.7635C658.517 51.3235 658.777 53.0968 659.084 55.0835C659.404 57.0835 659.731 58.9768 660.064 60.7635C660.411 62.5368 660.737 64.2368 661.044 65.8635C661.337 67.4768 661.604 69.2302 661.844 71.1235C662.084 73.0168 662.277 74.7302 662.424 76.2635C662.571 77.7835 662.844 79.6635 663.244 81.9035C663.644 84.1435 663.971 86.0035 664.224 87.4835C664.477 88.9768 664.731 90.5235 664.984 92.1235C665.224 93.7102 665.511 95.5302 665.844 97.5835C666.164 99.6235 666.444 101.47 666.684 103.123C666.924 104.777 667.217 106.663 667.564 108.784C667.897 110.904 668.131 112.803 668.264 114.483C668.384 116.15 668.504 117.717 668.624 119.184C668.731 120.664 668.857 122.19 669.004 123.763C669.164 125.35 669.337 126.963 669.524 128.604C669.724 130.23 669.911 131.93 670.084 133.704C670.271 135.477 670.497 137.457 670.764 139.644C671.044 141.817 671.297 144.017 671.524 146.244C671.751 148.47 671.891 150.817 671.944 153.284C672.011 155.75 672.037 157.75 672.024 159.284V163.824C672.024 165.317 672.011 166.904 671.984 168.584C671.968 169.583 671.952 170.571 671.936 171.547L671.904 173.524C671.877 175.124 671.851 176.784 671.824 178.504C671.784 180.223 671.757 181.964 671.744 183.724C671.744 185.484 671.737 187.297 671.724 189.164C671.711 191.03 671.697 192.97 671.684 194.984C671.671 196.997 671.617 199.017 671.524 201.044C671.431 203.07 671.344 205.017 671.264 206.884C671.184 208.75 671.131 210.897 671.104 213.324C671.077 215.763 671.024 218.25 670.944 220.784C670.851 223.317 670.744 225.47 670.624 227.244C670.491 229.03 670.337 230.97 670.164 233.064C669.991 235.17 669.877 237.124 669.824 238.924C669.784 240.737 669.757 242.383 669.744 243.864C669.731 245.33 669.724 246.977 669.724 248.804V254.164C669.711 255.924 669.711 257.777 669.724 259.724V265.344C669.724 267.17 669.717 268.844 669.704 270.363C669.691 271.884 669.684 273.557 669.684 275.383C669.671 277.21 669.664 278.97 669.664 280.663C669.651 282.37 669.637 283.97 669.624 285.464C669.597 286.944 669.571 288.457 669.544 290.003C669.531 291.55 669.511 293.15 669.484 294.803C669.457 296.457 669.431 298.07 669.404 299.643C669.377 301.217 669.377 303.29 669.404 305.863C669.431 308.437 669.471 310.483 669.524 312.003C669.564 313.51 669.591 315.37 669.604 317.583C669.617 319.797 669.637 321.924 669.664 323.964C669.677 326.017 669.697 327.83 669.724 329.404C669.751 330.977 669.817 332.823 669.924 334.943C670.017 337.063 670.077 338.89 670.104 340.423C670.131 341.957 670.337 343.45 670.724 344.904C671.111 346.357 671.277 347.99 671.224 349.803C671.171 351.63 670.697 353.17 669.804 354.423C668.897 355.677 667.731 356.51 666.304 356.923C664.877 357.337 663.437 357.477 661.984 357.344C660.517 357.21 659.071 357.143 657.644 357.143C656.217 357.13 654.751 357.057 653.244 356.923C651.724 356.79 649.791 356.637 647.444 356.464C645.097 356.29 642.984 356.177 641.104 356.124C639.224 356.084 637.211 356.077 635.064 356.103C632.917 356.117 630.391 356.27 627.484 356.564C624.591 356.844 621.957 357.004 619.584 357.043L605.484 357.283C603.191 357.323 600.937 357.357 598.724 357.383C596.524 357.41 594.411 357.43 592.384 357.443H586.604C584.751 357.457 582.997 357.47 581.344 357.483C579.691 357.497 577.437 357.45 574.584 357.344C571.731 357.237 569.351 357.13 567.444 357.023C565.537 356.93 563.477 356.85 561.264 356.783C559.051 356.717 556.497 356.743 553.604 356.863C550.697 356.97 547.971 357.083 545.424 357.203C542.877 357.31 540.257 357.437 537.564 357.583C534.857 357.73 532.131 357.877 529.384 358.023C526.624 358.17 523.891 358.31 521.184 358.443C518.477 358.563 515.804 358.684 513.164 358.803C510.524 358.937 507.864 359.07 505.184 359.203C502.517 359.35 499.744 359.523 496.864 359.723C493.984 359.923 490.977 360.163 487.844 360.443C484.711 360.71 481.711 360.957 478.844 361.184C475.964 361.424 472.357 361.703 468.024 362.023C463.691 362.357 459.197 362.67 454.544 362.964C449.891 363.257 445.064 363.577 440.064 363.923C435.064 364.257 430.631 364.557 426.764 364.823C422.884 365.077 419.077 365.357 415.344 365.663C411.624 365.957 408.191 366.224 405.044 366.464C401.911 366.69 398.931 366.93 396.104 367.184C393.291 367.437 390.564 367.684 387.924 367.923C385.284 368.164 382.751 368.35 380.324 368.483C377.897 368.617 375.544 368.724 373.264 368.803C370.984 368.884 368.771 368.937 366.624 368.964C364.491 368.99 362.537 368.97 360.764 368.904C358.991 368.85 356.784 368.904 354.144 369.064C351.517 369.224 348.564 369.37 345.284 369.503C342.017 369.65 338.197 369.89 333.824 370.223C329.464 370.557 325.184 370.844 320.984 371.083C316.784 371.324 312.471 371.59 308.044 371.883C303.604 372.177 298.824 372.53 293.704 372.943C288.571 373.357 283.111 373.783 277.324 374.223C271.524 374.663 265.717 375.07 259.904 375.443C254.091 375.83 248.417 376.19 242.884 376.523C237.364 376.857 231.864 377.224 226.384 377.624C220.891 378.023 215.624 378.357 210.584 378.624C205.531 378.89 201.171 379.05 197.504 379.103C193.851 379.157 189.571 379.19 184.664 379.203C179.757 379.217 175.197 379.23 170.984 379.243C166.757 379.257 162.191 379.27 157.284 379.283C152.364 379.31 147.837 379.337 143.704 379.363C139.571 379.377 135.337 379.397 131.004 379.423C126.684 379.45 122.284 379.47 117.804 379.483C113.324 379.497 108.577 379.497 103.564 379.483C98.5507 379.457 93.3573 379.383 87.984 379.263C82.6107 379.13 77.1773 378.99 71.684 378.844C66.1907 378.684 61.0173 378.637 56.164 378.703C51.3107 378.757 47.244 378.91 43.964 379.163C40.6707 379.404 36.8707 379.677 32.564 379.983C28.2707 380.29 24.664 380.61 21.744 380.943C18.8373 381.277 16.3973 381.47 14.424 381.523C12.424 381.564 10.6973 381.504 9.244 381.344C7.77733 381.184 6.23067 380.417 4.604 379.043C2.97733 377.657 1.99067 375.984 1.644 374.023C1.31067 372.077 1.13733 370.323 1.124 368.763V363.643C1.11067 361.79 1.07733 360.044 1.024 358.404C0.984 356.777 0.897334 354.997 0.764 353.064C0.644 351.13 0.577334 349.43 0.564 347.964C0.537334 346.497 0.457334 344.75 0.324001 342.723C0.190667 340.697 0.104 338.717 0.0640004 336.783C0.0106671 334.837 -0.00933338 333.117 0.00399996 331.624V321.823C0.0173333 320.263 0.0306675 318.657 0.0440009 317.003C0.0573342 315.35 0.0773337 313.784 0.104 312.303C0.130667 310.837 0.157334 309.383 0.184 307.943C0.210667 306.517 0.244001 305.064 0.284001 303.583C0.324001 302.117 0.430667 300.603 0.604 299.043C0.790667 297.47 0.917334 295.87 0.984 294.243C1.05067 292.617 1.19067 290.87 1.404 289.003C1.63067 287.137 1.864 285.09 2.104 282.863C2.35733 280.637 2.564 278.683 2.724 277.003C2.89733 275.337 3.09067 273.65 3.304 271.943C3.51733 270.237 3.744 268.597 3.984 267.023C4.21067 265.45 4.47733 263.697 4.784 261.763C5.07733 259.83 5.31067 257.897 5.484 255.964C5.65733 254.043 5.904 251.797 6.224 249.224C6.544 246.637 6.77733 244.61 6.924 243.144C7.05733 241.677 7.184 240.11 7.304 238.444C7.41067 236.777 7.524 235.124 7.644 233.484C7.77733 231.843 7.904 230.197 8.024 228.544C8.144 226.89 8.25733 225.21 8.364 223.504C8.47067 221.81 8.604 219.443 8.764 216.404C8.93733 213.363 9.044 210.897 9.084 209.004C9.13733 207.11 9.184 205.077 9.224 202.904C9.264 200.73 9.33733 198.61 9.444 196.544C9.55067 194.477 9.55733 192.29 9.464 189.984C9.384 187.677 9.384 185.09 9.464 182.224C9.55733 179.357 9.684 176.95 9.844 175.004C10.004 173.057 10.184 171.163 10.384 169.324C10.5973 167.483 10.844 165.27 11.124 162.684C11.4173 160.11 11.6173 157.69 11.724 155.424C11.8307 153.143 11.884 150.477 11.884 147.424C11.8707 144.37 11.864 140.65 11.864 136.264C11.864 131.877 11.8573 127.31 11.844 122.563C11.844 117.817 11.8373 112.61 11.824 106.943C11.8107 101.277 11.7973 95.4635 11.784 89.5035C11.7707 83.5568 11.7573 77.3168 11.744 70.7835C11.7307 64.2502 11.7107 58.2702 11.684 52.8435C11.6573 47.4302 11.6307 41.5968 11.604 35.3435C11.564 29.0902 11.524 23.7902 11.484 19.4435C11.4708 18.3684 11.4605 17.419 11.453 16.5951C11.4363 16.5777 11.4197 16.5602 11.4033 16.5425C11.2433 16.3558 11.1033 16.1558 10.9833 15.9425C10.8633 15.7158 10.7766 15.4825 10.7233 15.2425C10.6566 14.9892 10.6233 14.7425 10.6233 14.5025C10.6233 14.2625 10.6566 14.0158 10.7233 13.7625C10.7766 13.5225 10.8633 13.2892 10.9833 13.0625C11.1033 12.8492 11.2433 12.6492 11.4033 12.4625C11.4317 12.4319 11.4605 12.4018 11.4896 12.3723ZM15.317 342C15.3521 342.509 15.3894 343.008 15.429 343.498V342H15.317Z" fill="black"/>
</svg>
