<svg xmlns="http://www.w3.org/2000/svg" id="Layer_1" width="360.8" height="85.4" x="0" y="0" viewBox="0 0 360.8 85.4" style="enable-background:new 0 0 360.8 85.4" version="1.1"><style>.st0{fill:#5bc2dc}</style><path d="M125.1 43.6H111c.5-6 .8-12 .7-17.9v-5.9c0-6.7-.2-14.1-1-17.9h8.1c3 0 4.6 1 5.1 2.9 3.6-2.5 7.9-3.9 12.3-3.8 15.1 0 17 8.7 17 15.1v11.7c-.1 5.3.2 10.7.9 16h-8.4c-3.9 0-5.7-2.2-5.7-5.9v-17c0-6.7-.7-11.8-9.4-11.8-2 0-3.9.3-5.7 1v15.1c-.3 5-.3 14.1.2 18.4M83.3 1.8h14.1c-.5 6-.8 12-.7 17.9v5.9c-.1 6 .2 12 1 17.9h-8.1c-3 0-4.6-1-5.1-2.9-3.6 2.5-7.9 3.9-12.3 3.8-15.2 0-17-8.7-17-15.1V17.8c.1-5.3-.2-10.7-.9-16h8.4c3.9 0 5.7 2.2 5.7 5.9v17c0 6.7.7 11.9 9.4 11.9 2 0 3.9-.3 5.7-1v-15c.3-5.4.1-14.5-.2-18.8m-40.1 9.9c-2.5-2.2-7.1-3.5-11.8-3.5-3.4 0-7.4.5-7.4 4.2 0 2.7 3.4 4 8.4 5.8 5.9 2.1 12.8 4.8 12.8 12.7 0 12.5-14 14.1-20.5 14.1-3.6.1-7.2-.3-10.8-1.1-3-.8-3.7-2.1-3.7-5.9v-4.6c3.4 2.2 8.8 3.4 13.1 3.4 5.4 0 8.1-1.4 8.1-4.7 0-3-2.9-4.2-10.4-6.9-5.2-1.9-10.8-4.5-10.8-11.7C10.3 2.7 22.9 0 30.5 0c3.6-.1 7.2.5 10.6 1.8 2 1 2.2 2.1 2.2 4.6v5.3zM215.6 22.4c0 9.6 3.5 13.9 10.4 13.9 6.7 0 10.1-4.3 10.1-13.9S232.7 8.3 226 8.3c-6.8 0-10.4 4.5-10.4 14.1m33.5-.1c0 13.9-8.4 22.6-23.6 22.6s-22.9-7.8-22.9-22.1C202.6 8.7 210.8.5 226 .5s23.1 7.7 23.1 21.8M193.7 1.8c2.6 0 5.3-.1 7.9-.5-.5 2.1-1.2 4.1-2 6.1-1.2 2.4-2.7 3.2-8.6 3.2h-5v14.3c0 5.3.2 14.4.7 18.7h-14.3c.5-4.3.7-13.4.7-18.7V10.6h-4.4c-3.9 0-7.2.5-8.9 1.4V6.4c0-3.2.7-4.6 5.7-4.6h28.2zM332.8 31.4v1c0 3.7.2 7.5.7 11.2h-14.3c.5-3.7.7-7.5.7-11.2v-1c0-1.8-.5-3.5-2-6.4-3.2-6.1-10.3-17.8-16.3-23.1 3.1-.3 6.3-.5 9.4-.5 5.5 0 7.2 1.8 8.6 3.8 2.7 4.6 5.2 9.4 7.4 14.3 2.2-4.8 4.6-9.5 7.2-14.1 1.3-1.9 3.2-4 7.9-4 2.8 0 5.6.2 8.4.5-4.4 3.7-12.6 16.7-16 22.6-1.3 2.1-1.9 4.5-1.7 6.9m-36 14.6c-5.4 0-6.6-1.9-9.9-6.6-1.9-2.6-7.8-12-8.8-13.9-.5-1-.7-1.8.3-2.2 4.4-2.4 5.5-5 5.5-7.8 0-3.4-1.5-6.2-6.6-6.2-1.6 0-3.2.1-4.7.5V25c0 5.3.2 14.4.7 18.7h-13.8c.5-6 .7-12 .7-17.9v-5.9c0-6.7-.2-14.1-1-17.9 6.6 0 16.2-.3 20.4-.3 7.4 0 17.3 1.5 17.3 12 0 4.2-2.2 8-5.9 10.1-.7.5-.7.8 0 1.8 4.6 6.7 10.4 14.3 15.6 19.6-3.2.4-6.5.7-9.8.8M10.7 74.6c2.8.4 4.2 2.1 4.2 5 0 4-3 6-8.9 6-1.6 0-3.6-.1-6-.2l.2-20.9 2.2-.1c2.4-.1 4-.2 4.8-.2 1.3 0 2.7.1 4 .4 2.3.5 4 2.6 3.8 5-.2 2.7-1.6 4.4-4.3 5zm-6.6 7.7h2.2c2.9 0 4.3-1 4.3-3.1.1-1-.3-1.9-1.2-2.4-.9-.4-2-.6-3-.6H4.2l-.1 6.1zm0-9.1h2.5c2.6 0 3.9-1 3.9-2.9s-1.2-2.9-3.6-2.9l-2.7.1-.1 5.7zM32.2 85.4H20l.1-20.9h12v3.2h-7.9v5.4H32v3.2h-7.8v5.9h8v3.2zM54.5 65.1l-7.8 20.3h-4.4L35 65.1l4-1.1 4.4 13c.5 1.6.9 3.2 1.1 4.9v.1c.3-1.7.7-3.4 1.3-5l4.8-12.9 3.9 1zM69.9 85.4H57.7l.1-20.9h12v3.2H62v5.4h7.8v3.2H62v5.9h8l-.1 3.2zM91.1 84.2l-3.8 1.7-6.6-9.9 1-1.9c2.8-.2 4.2-1.4 4.2-3.5s-1.3-3.2-4-3.3c-.9 0-1.7 0-2.4.1l-.1 18h-4.2l.1-20.9h.2c3.2-.2 5.4-.3 6.6-.3 5.3 0 8 2 7.9 5.8 0 3.1-1.6 5.1-4.9 6.1.5.4.9.9 1.2 1.4l4.8 6.7zM112 84.8l-4.1.9-2.1-6h-7.5l-2.2 5.9-3.7-.9 8-20.4h4.1l7.5 20.5zm-7.2-8.2-1.4-3.7c-.6-1.6-1-3.3-1.2-5-.3 1.7-.7 3.4-1.3 5l-1.3 3.8 5.2-.1zM132.1 75.2l-.1 9.1c-2.3.9-4.7 1.3-7.1 1.4-3.1.2-6.1-1-8.2-3.2-1.7-2-2.6-4.6-2.5-7.2-.1-2.9 1.1-5.7 3.2-7.8 2.1-2.2 5.1-3.4 8.1-3.3 2 0 3.9.5 5.6 1.4l-1.6 2.6c-1.3-.5-2.6-.8-4-.9-2.1 0-4.2 1-5.3 2.8-1 1.4-1.6 3.1-1.5 4.9 0 1.6.4 3.2 1.1 4.6 1.1 2 3.1 3.1 5.4 3 .9 0 1.9-.1 2.8-.4l.1-6.9 4-.1zM149.7 85.4h-12.1l.1-20.9h12v3.2h-7.9v5.4h7.8v3.2h-7.8v5.9h8l-.1 3.2zM182.2 83.9l-3.3 2.3-2.3-2.6c-1.8 1.4-4 2.2-6.2 2.1-2.8 0-4.9-.7-6.2-2.2-1-1.1-1.5-2.5-1.5-4 0-2.3 1.5-4.4 4.6-6.5-1.6-1.6-2.4-3-2.4-4.3-.1-1.5.7-2.9 2.1-3.6 1.2-.6 2.5-1 3.9-.9 1.4-.1 2.9.4 3.9 1.3.7.7 1.1 1.7 1.1 2.8 0 1.7-1.2 3.3-3.5 4.8l3.9 4.4c.2-1.3.3-2.6.3-3.9h3.5c.1 2.3-.3 4.7-1.2 6.9l3.3 3.4zm-7.7-2.7-5.3-5.9c-1.3.7-2.2 2.1-2.2 3.6-.1 1 .3 2 1 2.7.8.7 1.8 1.1 2.8 1 1.4 0 2.7-.5 3.7-1.4zm-4-10.4c.1-.1.2-.2.3-.2 1-.8 1.6-1.5 1.6-2.2 0-1-.6-1.6-1.7-1.6-.5 0-.9.2-1.3.5-.3.3-.5.7-.5 1.1.1.5.6 1.3 1.6 2.4zM206.6 67.7h-7.9l-.1 5.7h7.8v3.3h-7.8l-.1 8.7h-4.1l.1-20.9h12l.1 3.2zM221 64.2c3-.2 5.9 1 8 3.2 1.8 2 2.7 4.7 2.6 7.4.1 3-1 5.8-3.1 7.9-2 2.1-4.8 3.2-7.7 3.1-3.4 0-6.1-1-8-3.1-3.6-4.6-3.3-11.1.6-15.4 2-2.1 4.7-3.2 7.6-3.1zm0 3.1c-1.5 0-3 .6-4.1 1.7-1.5 1.7-2.3 3.9-2.1 6.1 0 5 2 7.5 6 7.5 2.5.1 4.8-1.4 5.6-3.8.5-1.2.8-2.6.7-3.9.1-1.7-.3-3.4-1.1-4.9-1.1-1.8-3-2.9-5-2.7zM245.6 64.2c3-.2 5.9 1 8 3.2 1.8 2 2.7 4.7 2.5 7.4.1 3-1 5.8-3.1 7.9-2 2.1-4.8 3.2-7.7 3.1-3.4 0-6.1-1-7.9-3.1-3.6-4.6-3.3-11.1.6-15.4 2-2.1 4.8-3.2 7.6-3.1zm0 3.1c-1.5 0-3 .6-4.1 1.7-1.5 1.7-2.3 3.9-2.1 6.1 0 5 2 7.5 6 7.5 2.5.1 4.8-1.4 5.6-3.8.5-1.2.8-2.6.8-3.9.1-1.7-.3-3.4-1.1-4.9-1.2-1.8-3.1-2.9-5.1-2.7zM260.9 64.5c3.3-.2 5.6-.3 7-.3 3.9 0 6.8 1.1 8.7 3.1 1.6 2 2.5 4.5 2.4 7 .1 2.9-1 5.7-3 7.8-2.3 2.3-5.5 3.5-8.8 3.4-1.6 0-3.7-.1-6.3-.2h-.1l.1-20.8zm4 17.9h.4c1.1 0 1.8.1 2.2.1 1.8 0 3.5-.6 4.7-1.9 1.6-1.6 2.4-3.8 2.3-6 .1-2.1-.6-4.2-2.1-5.7-1.2-1.1-2.8-1.6-4.4-1.5-.6 0-1.5 0-2.7.1h-.3l-.1 14.9zM309 75.2l-.1 9.1c-2.3.9-4.7 1.3-7.1 1.4-3.1.2-6.1-1-8.2-3.2-1.7-2-2.6-4.6-2.5-7.2-.1-2.9 1.1-5.7 3.2-7.8 2.1-2.2 5.1-3.4 8.1-3.3 2 0 3.9.5 5.6 1.4l-1.6 2.6c-1.3-.5-2.6-.8-4-.9-2.1 0-4.2 1-5.3 2.8-1 1.4-1.6 3.1-1.5 4.9 0 1.6.4 3.2 1.2 4.6 1.1 2 3.1 3.1 5.4 3 .9 0 1.9-.1 2.8-.4l.1-6.9 3.9-.1zM325.3 74.6c2.8.4 4.2 2.1 4.2 5 0 4-3 6-8.9 6-1.7 0-3.7-.1-6-.2l.1-20.9 2.2-.1c2.4-.1 4-.2 4.8-.2 1.3 0 2.7.1 4 .4 2.3.5 3.9 2.6 3.8 5-.1 2.7-1.5 4.4-4.2 5zm-6.6 7.7h2.2c2.8 0 4.3-1 4.3-3.1.1-1-.4-1.9-1.2-2.4-.9-.4-2-.6-3-.6h-2.3v6.1zm0-9.1h2.5c2.6 0 3.9-1 3.9-2.9 0-2-1.2-2.9-3.6-2.9l-2.7.1-.1 5.7zM352.9 83.9l-3.2 2.3-2.3-2.6c-1.8 1.4-4 2.2-6.2 2.1-2.8 0-4.9-.7-6.2-2.2-1-1.1-1.5-2.5-1.5-4 0-2.3 1.5-4.4 4.6-6.5-1.6-1.6-2.3-3-2.3-4.3-.1-1.5.7-2.9 2.1-3.6 1.2-.6 2.5-1 3.9-.9 1.4-.1 2.9.4 3.9 1.3.7.7 1.2 1.7 1.1 2.8 0 1.7-1.2 3.3-3.5 4.8l3.9 4.4c.2-1.3.3-2.6.3-3.9h3.5c.1 2.3-.3 4.7-1.2 6.9l3.1 3.4zm-7.6-2.7-5.3-5.9c-1.3.7-2.1 2-2.2 3.5-.1 1 .3 2 1 2.7.8.7 1.8 1.1 2.8 1 1.3.1 2.7-.4 3.7-1.3zm-4-10.4.3-.2c1-.8 1.6-1.5 1.6-2.2 0-1-.6-1.6-1.7-1.6-.5 0-.9.2-1.3.5-.3.3-.5.7-.5 1.1 0 .5.5 1.3 1.6 2.4zM360.8 64.5l-.1 20.9h-4.2l.2-20.9h4.1z" class="st0"/></svg>